<?xml version="1.0" encoding="UTF-8"?>
<svg version="1.1" xmlns="http://www.w3.org/2000/svg" width="1563" height="1563">
<path d="M0 0 C0.94020996 0.16628906 1.88041992 0.33257813 2.84912109 0.50390625 C47.43850981 8.66464847 88.19321537 29.32682972 121.58984375 59.8125 C123.92581254 61.93266617 126.30326875 63.9969731 128.6875 66.0625 C132.17223281 69.15596456 135.27001494 72.40599373 138.2734375 75.96484375 C140.02561662 78.03019516 141.85148045 80.00908991 143.6875 82 C179.11297684 122.06696514 198.50860514 174.82879965 201.85742188 227.81640625 C201.97728727 229.65215297 202.16095401 231.48357605 202.359375 233.3125 C201.82645367 237.29782474 200.10672352 238.52920142 197 241 C194.1121799 241.49180331 191.81588618 241.6740531 188.93362427 241.6292057 C188.12231041 241.63647291 187.31099655 241.64374011 186.47509742 241.65122753 C183.74481196 241.66953749 181.01592073 241.65209482 178.28564453 241.63491821 C176.31323082 241.64067704 174.34082246 241.64861654 172.36842537 241.65855443 C166.93927762 241.67948371 161.51056765 241.66908486 156.08141804 241.65362334 C150.22992759 241.64233866 144.37851391 241.65975822 138.52703857 241.67352295 C127.06041972 241.69579069 115.59396422 241.69093838 104.12733889 241.67645974 C94.81064914 241.66518142 85.49400532 241.66363051 76.17730713 241.66907883 C75.51570269 241.66946075 74.85409825 241.66984268 74.17244519 241.67023618 C71.48687713 241.67179283 68.80130909 241.67338483 66.11574108 241.675035 C40.91540589 241.69033511 15.71515991 241.67645462 -9.48516151 241.64955051 C-31.88143151 241.62582188 -54.27755937 241.627945 -76.67382812 241.65185547 C-101.82762649 241.67862005 -126.98134601 241.6892501 -152.13515663 241.67379415 C-154.81587345 241.67219053 -157.49659028 241.67062633 -160.17730713 241.66907883 C-161.49637334 241.66830745 -162.81543955 241.66753607 -164.17447746 241.66674132 C-173.4831868 241.66241882 -182.79182533 241.66972272 -192.1005249 241.68147659 C-203.44015404 241.69547973 -214.77961007 241.69174763 -226.1192193 241.66507287 C-231.90818215 241.65190535 -237.69685605 241.64683242 -243.48581696 241.66331863 C-248.78075877 241.67817022 -254.07514263 241.67010911 -259.3700335 241.64343087 C-261.28987392 241.63782555 -263.20976106 241.64073198 -265.12957168 241.65280981 C-267.73160072 241.66792936 -270.33169757 241.65251201 -272.93362427 241.6292057 C-273.68593708 241.64091153 -274.4382499 241.65261737 -275.21336007 241.66467792 C-279.16880284 241.59344993 -280.84979577 241.12114138 -283.97044182 238.60430562 C-286.16440746 235.78903425 -286.59955775 234.8111398 -286.41015625 231.32421875 C-286.37003418 230.42662842 -286.32991211 229.52903809 -286.28857422 228.60424805 C-286.21396973 227.64172119 -286.13936523 226.67919434 -286.0625 225.6875 C-285.96606201 224.16539917 -285.96606201 224.16539917 -285.86767578 222.61254883 C-282.00909853 169.56730867 -260.62335136 117.50285887 -224.28125 78.46875 C-222.38769392 76.41955918 -220.5940214 74.3325972 -218.8125 72.1875 C-183.32386016 31.65268993 -130.38902729 7.4669135 -78 -1 C-77.31067383 -1.11859375 -76.62134766 -1.2371875 -75.91113281 -1.359375 C-51.47162777 -5.43869626 -24.29099057 -4.36730604 0 0 Z " fill="#FE3131" transform="translate(824,683)"/>
<path d="M0 0 C1.16337891 -0.00570007 2.32675781 -0.01140015 3.52539062 -0.01727295 C5.98273832 -0.02667188 8.44009832 -0.03323646 10.89746094 -0.03710938 C14.55948597 -0.04670336 18.22092138 -0.07773025 21.8828125 -0.109375 C38.30752767 -0.18300112 54.36063949 0.90155224 70.625 3.203125 C71.72569824 3.34874878 72.82639648 3.49437256 73.96044922 3.64440918 C75.03439941 3.80010376 76.10834961 3.95579834 77.21484375 4.11621094 C78.18156006 4.25250916 79.14827637 4.38880737 80.14428711 4.52923584 C82.93704414 5.28789223 83.97059413 5.84580282 85.625 8.203125 C86.98562782 12.68932123 86.34211834 16.77614925 85.64962769 21.31761169 C85.47339337 22.54130831 85.47339337 22.54130831 85.29359877 23.78972608 C84.89632647 26.53350073 84.48694374 29.27533076 84.07763672 32.01733398 C83.78856792 33.99612389 83.50024539 35.97502293 83.21260834 37.95402145 C82.42043509 43.38923467 81.61770714 48.82284466 80.81329298 54.25625777 C79.9524927 60.08337113 79.10152581 65.91192074 78.24942017 71.74031067 C76.58777631 83.0953498 74.91730469 94.44907306 73.24382842 105.80237371 C71.30732731 118.94238865 69.37928492 132.08364021 67.45211458 145.22502637 C66.47492876 151.88841125 65.49738049 158.55174295 64.51971436 165.21505737 C64.42234017 165.87873122 64.32496598 166.54240507 64.22464105 167.22619025 C62.73332142 177.39015673 61.23990216 187.55381342 59.74542236 197.71731567 C54.98500342 230.09351171 50.24617448 262.47275895 45.53496611 294.85616142 C44.3386097 303.07954409 43.14116341 311.3027673 41.94284058 319.52586365 C41.77752331 320.66032234 41.61220604 321.79478104 41.44187915 322.96361727 C40.78457081 327.47407491 40.12721311 331.98452535 39.46974826 336.49496019 C37.72090466 348.49263155 35.97370263 360.49053551 34.23187256 372.48922729 C32.89527891 381.69616052 31.55444624 390.902464 30.20806515 400.10797125 C29.52618738 404.7710888 28.84636936 409.43448237 28.17207718 414.09870338 C27.5586321 418.34188436 26.93953785 422.58420007 26.31583428 426.82588494 C26.09153141 428.35838337 25.86934278 429.89119301 25.64945769 431.42433155 C25.35125204 433.50140454 25.0454395 435.57721879 24.7376709 437.65289307 C24.56981834 438.80577946 24.40196579 439.95866585 24.22902679 441.14648819 C23.64789968 444.08724271 22.97464983 446.52833922 21.625 449.203125 C18.13375983 451.53061845 16.73277749 451.70611816 12.625 451.203125 C9.14272143 448.59818141 8.08627321 446.2533197 7.3832562 441.99518752 C7.28697391 441.30698621 7.19069163 440.6187849 7.0914917 439.909729 C6.91587869 438.79687228 6.91587869 438.79687228 6.73671794 437.66153359 C6.3496035 435.17762674 5.98696377 432.69081205 5.625 430.203125 C5.3585525 428.45031662 5.09102182 426.6976726 4.82248688 424.9451828 C3.90929991 418.93303541 3.03505881 412.91541845 2.16113281 406.89746094 C1.82343453 404.58524638 1.48551169 402.2730646 1.14738464 399.9609127 C0.4203982 394.98626439 -0.30498515 390.01138595 -1.02910614 385.03631973 C-2.09366873 377.72230864 -3.16118527 370.40873196 -4.22944215 363.0952598 C-6.53995627 347.27632623 -8.84591181 331.45672939 -11.15103982 315.63701021 C-12.33855043 307.48735918 -13.52641618 299.33775993 -14.71435547 291.18817139 C-14.82130547 290.45446119 -14.92825546 289.720751 -15.03844637 288.96480717 C-17.19713085 274.15569625 -19.35641298 259.34667252 -21.51616177 244.53771678 C-22.16248504 240.10593055 -22.80867553 235.67412498 -23.45476887 231.24230523 C-28.66175109 195.52594079 -33.89564817 159.81386655 -39.20740509 124.11289978 C-40.05988189 118.38236388 -40.91011096 112.6514962 -41.75970459 106.92053223 C-42.03032974 105.09535712 -42.3009558 103.27018215 -42.57158279 101.44500732 C-42.96521933 98.79014417 -43.35882663 96.13527671 -43.75232077 93.48039246 C-45.23449373 83.48161772 -46.72524629 73.48421158 -48.23048568 63.48888242 C-49.14584551 57.40623131 -50.05161097 51.32220445 -50.94938111 45.2369324 C-51.45338495 41.82332253 -51.96195926 38.41056895 -52.48355865 34.99959946 C-53.03310791 31.39163415 -53.56562306 27.78156327 -54.09375 24.17041016 C-54.25639721 23.131777 -54.41904442 22.09314384 -54.58662033 21.02303696 C-55.31961336 15.87846614 -55.75815264 12.02754859 -53.375 7.203125 C-50.75871022 4.58683522 -49.08549198 4.67074026 -45.44140625 4.16796875 C-44.23419922 3.99845703 -43.02699219 3.82894531 -41.78320312 3.65429688 C-40.51412109 3.48478516 -39.24503906 3.31527344 -37.9375 3.140625 C-36.70322266 2.96724609 -35.46894531 2.79386719 -34.19726562 2.61523438 C-22.76617619 1.03749014 -11.54235641 0.04527508 0 0 Z " fill="#FF3131" transform="translate(766.375,114.796875)"/>
<path d="M0 0 C6.25804933 0.09585026 11.57406029 2.98163063 17.15234375 5.57421875 C18.33739502 6.11522217 19.52244629 6.65622559 20.7434082 7.21362305 C48.42948653 19.93893138 74.35837249 35.06399608 98.71484375 53.38671875 C99.37178223 53.8760791 100.0287207 54.36543945 100.70556641 54.86962891 C111.30647697 62.77416857 111.30647697 62.77416857 113.71484375 66.38671875 C114.0209329 72.64821587 111.89149075 78.178249 109.3125 83.7578125 C108.78942513 84.93083168 108.78942513 84.93083168 108.25578308 86.12754822 C107.50207614 87.81433341 106.7427657 89.49862394 105.97839355 91.18060303 C104.32293711 94.82440752 102.69572802 98.48061494 101.06655884 102.13623047 C100.215042 104.04634615 99.36214048 105.95584511 98.50790405 107.86474609 C94.22131856 117.45235035 90.08353297 127.10108959 85.96484375 136.76171875 C84.46571694 140.27120679 82.96534671 143.78016265 81.46484375 147.2890625 C81.08369919 148.18068085 80.70255463 149.07229919 80.30986023 149.99093628 C75.55312626 161.11277091 70.75868437 172.21834069 65.96484375 183.32421875 C65.50436646 184.39113953 65.04388916 185.4580603 64.56945801 186.55731201 C62.22302813 191.99389985 59.8762656 197.43034398 57.52929688 202.86669922 C54.75151389 209.30128762 51.97512826 215.73647818 49.19921875 222.171875 C48.74654633 223.2213028 48.2938739 224.27073059 47.82748413 225.35195923 C45.99790993 229.59354293 44.16839751 233.83515327 42.33892822 238.07678223 C37.77470178 248.65889543 33.21015953 259.24086985 28.64115906 269.82092285 C26.37358117 275.07181741 24.10655847 280.32295152 21.83984375 285.57421875 C21.38898407 286.61870178 20.93812439 287.66318481 20.47360229 288.73931885 C12.70868968 306.73161552 4.99052791 324.74372705 -2.71960449 342.759552 C-11.34997429 362.92064155 -20.05533468 383.0481578 -28.80053711 403.15966797 C-29.25551071 404.20635651 -29.71048431 405.25304504 -30.179245 406.33145142 C-31.05182408 408.33732913 -31.92556943 410.3427 -32.8006134 412.34750366 C-34.61951514 416.52010458 -36.42458592 420.69521825 -38.15527344 424.90527344 C-38.56669083 425.89815872 -38.56669083 425.89815872 -38.98641968 426.91110229 C-39.68005007 428.59369866 -40.36281994 430.28076166 -41.04443359 431.96826172 C-42.28515625 434.38671875 -42.28515625 434.38671875 -45.28515625 436.38671875 C-51.34883634 437.04821112 -51.34883634 437.04821112 -54.51592839 434.81072026 C-56.99201865 431.41825359 -56.5493814 429.37012177 -56.15530205 425.22769451 C-56.09339209 424.52332789 -56.03148214 423.81896126 -55.96769612 423.0932502 C-55.76363459 420.85474029 -55.52742055 418.62138958 -55.28515625 416.38671875 C-55.14474459 414.99910809 -55.00460355 413.61147001 -54.86474824 412.22380316 C-54.40338848 407.78820473 -53.88412318 403.35999033 -53.36282349 398.93110657 C-53.1657537 397.22973401 -52.96905043 395.52831896 -52.7726773 393.82686585 C-52.2372896 389.19757144 -51.69663191 384.56890617 -51.15500426 379.94033825 C-50.56978306 374.93128622 -49.98947257 369.92166477 -49.40844727 364.91212463 C-48.14032273 353.98691469 -46.86581966 343.0624547 -45.58996058 332.13814569 C-44.79312089 325.31512793 -43.99761178 318.49195546 -43.20235825 311.66875267 C-40.99892426 292.7653537 -38.79400458 273.86212957 -36.58319283 254.95959187 C-36.44203729 253.75269099 -36.30088176 252.54579012 -36.15544879 251.3023165 C-35.86932262 248.85593392 -35.58319621 246.40955136 -35.29706956 243.96316884 C-35.08403624 242.14170666 -35.08403624 242.14170666 -34.86669922 240.28344727 C-34.72450214 239.06765479 -34.58230507 237.85186231 -34.43579899 236.59922763 C-32.12694301 216.85587745 -29.8290308 197.11127015 -27.53581955 177.36609731 C-25.1795942 157.07966667 -22.81448242 136.79428846 -20.44033325 116.50994748 C-19.10814483 105.12618294 -17.77978332 93.74200073 -16.46118546 82.35665321 C-15.33975838 72.67417392 -14.21022574 62.99268406 -13.06999721 53.31240008 C-12.48840524 48.37272108 -11.91071451 43.43266632 -11.3433342 38.49133301 C-10.82421361 33.97111613 -10.29418409 29.45231928 -9.75532006 24.93441477 C-9.56203224 23.2973473 -9.37279592 21.65979551 -9.18795861 20.02175239 C-8.93664014 17.79983986 -8.67077298 15.58014019 -8.40114021 13.36038685 C-8.25700884 12.12547593 -8.11287747 10.89056501 -7.96437848 9.61823255 C-6.88100584 4.46390532 -5.39869225 0.63551787 0 0 Z " fill="#FF3131" transform="translate(925.28515625,141.61328125)"/>
<path d="M0 0 C2.91262183 2.17967208 3.50009885 4.11135091 4.05857658 7.63536549 C4.29352321 9.11473919 4.29352321 9.11473919 4.53321624 10.62399924 C5.46339546 17.35149496 6.27951074 24.08834799 7.06277466 30.83415222 C7.26219569 32.52914723 7.46192166 34.22410638 7.66192424 35.91903287 C8.20783425 40.55301433 8.74938955 45.18749565 9.29019475 49.82207525 C9.8752417 54.82919396 10.46433282 59.83583711 11.05288696 64.84254456 C12.20399646 74.64054222 13.35128639 84.43898347 14.49715103 94.23759576 C15.42843156 102.20078882 16.36100341 110.16382965 17.29449081 118.1267643 C17.42743717 119.26086223 17.56038353 120.39496017 17.69735857 121.56342471 C17.96744982 123.86741218 18.23754276 126.17139946 18.50763737 128.47538654 C21.03863513 150.06708128 23.5651586 171.65929782 26.09026264 193.2516825 C28.40075769 213.00779991 30.71656967 232.76328974 33.0349306 252.51848551 C35.4160663 272.80896275 37.79379641 293.09983631 40.16775882 313.39115411 C41.50036156 324.78102761 42.83428689 336.17074238 44.17172623 347.56004906 C45.30976722 357.25170133 46.44456633 366.94372648 47.57517637 376.63624855 C48.1520896 381.58126829 48.73048769 386.52610232 49.31289673 391.47047806 C49.84601595 395.99675109 50.37486544 400.52350188 50.90032016 405.0506709 C51.09111068 406.68794348 51.28345915 408.32503543 51.47752596 409.96192291 C51.74127525 412.1885488 51.99930627 414.41576772 52.25595284 416.64322186 C52.4006813 417.87970398 52.54540976 419.1161861 52.69452393 420.39013737 C53.59625093 431.04599852 53.59625093 431.04599852 51.4375 434.5 C48.05111671 436.58392818 45.90614682 436.55802097 42 436 C38.39141644 433.09488702 36.86597955 429.97649803 35.1015625 425.74609375 C34.83475174 425.11506241 34.56794098 424.48403107 34.29304504 423.83387756 C33.70719538 422.44524513 33.12581139 421.05472237 32.54830933 419.66259766 C31.25887012 416.55515784 29.94723953 413.45721284 28.63774109 410.35818481 C27.91728062 408.6521885 27.19800681 406.94569063 26.47981262 405.23873901 C22.32623816 395.37174274 18.07727626 385.54621142 13.82910156 375.71966553 C11.94257201 371.35491464 10.05891779 366.98892506 8.17514038 362.62298584 C4.41662169 353.91236751 0.65580816 345.20274009 -3.10540771 336.49328613 C-5.36244679 331.26657681 -7.61887248 326.03960286 -9.875 320.8125 C-10.32522522 319.76946716 -10.77545044 318.72643433 -11.23931885 317.65179443 C-17.99459967 301.99897695 -24.71703198 286.33229458 -31.42492676 270.65911865 C-39.7759086 251.14709777 -48.16612479 231.65300702 -56.625 212.1875 C-57.09945557 211.09565399 -57.57391113 210.00380798 -58.06274414 208.87887573 C-58.53639404 207.78890289 -59.01004395 206.69893005 -59.49804688 205.57592773 C-77.4534174 164.2556761 -95.26546169 122.87269003 -112.95321655 81.43713379 C-113.60900861 79.91031084 -114.27141368 78.38629273 -114.94351196 76.86657715 C-116.64931577 72.99733182 -117.740384 70.25720799 -117 66 C-91.89815874 38.36028876 -51.93361035 19.17538764 -18.4375 4.1875 C-17.50446045 3.76065918 -16.5714209 3.33381836 -15.61010742 2.89404297 C-10.1506717 0.52063508 -5.96384864 -0.75783712 0 0 Z " fill="#FF3131" transform="translate(642,142)"/>
<path d="M0 0 C0.66 0 1.32 0 2 0 C2.33 6.6 2.66 13.2 3 20 C8.47825081 18.67082039 8.47825081 18.67082039 10 17 C11.32725037 16.70077614 12.66232286 16.43599211 14 16.1875 C17.50842295 15.45564744 20.51388135 14.41161339 23.75 12.875 C26.98579498 11.34493933 29.35313877 10.52943726 33 11 C33.33 9.35 33.66 7.7 34 6 C39.625 4.875 39.625 4.875 43 6 C44.03291676 7.98320018 45.0337499 9.98347806 46 12 C46.99 12.495 46.99 12.495 48 13 C48.495 14.485 48.495 14.485 49 16 C50.70138705 16.8764932 50.70138705 16.8764932 52.75 17.4375 C56.53375235 18.77334088 59.26180623 19.93966579 62 23 C64.09279158 28.38893831 64.35364831 33.35979871 63 39 C62.34 39.99 61.68 40.98 61 42 C60.54227937 44.73872955 60.54227937 44.73872955 60.375 47.6875 C60.30023437 48.68136719 60.22546875 49.67523437 60.1484375 50.69921875 C60.07496094 51.83810547 60.07496094 51.83810547 60 53 C62.0745356 53.1490712 62.0745356 53.1490712 64 52 C65.99960012 51.960008 68.00047242 51.95653201 70 52 C71.17661508 48.32307787 71.14475933 44.8361222 71 41 C70.67 40.67 70.34 40.34 70 40 C69.41453215 32.85729221 69.41453215 32.85729221 71.75 29.4375 C74 28 74 28 76.25 28.25 C76.8275 28.4975 77.405 28.745 78 29 C78 28.01 78 27.02 78 26 C76.68 25.67 75.36 25.34 74 25 C75.24546405 21.26360784 76.63404953 20.81243487 80 19 C82.5 20.3125 82.5 20.3125 85 22 C85 22.99 85 23.98 85 25 C83.02 25.495 83.02 25.495 81 26 C81 26.99 81 27.98 81 29 C81.928125 29.4021875 81.928125 29.4021875 82.875 29.8125 C85 31 85 31 87 34 C87.27156939 36.30414031 87.44821689 38.62022749 87.5625 40.9375 C87.82371204 46.54206674 87.82371204 46.54206674 89 52 C89.721875 52.12375 90.44375 52.2475 91.1875 52.375 C93.95721894 52.9904931 96.3970354 53.88444374 99 55 C99.33 57.31 99.66 59.62 100 62 C104.91925584 62.10309979 104.91925584 62.10309979 109.75 61.3125 C110.86375 61.1578125 110.86375 61.1578125 112 61 C113.8125 62.4375 113.8125 62.4375 115 64 C114 67 114 67 113 68 C113.598125 68.103125 114.19625 68.20625 114.8125 68.3125 C117.40643063 69.12773534 118.30027869 69.89160252 120 72 C120.66015625 74.41015625 120.66015625 74.41015625 121.0625 77.0625 C121.57922919 80.98227684 121.57922919 80.98227684 124 84 C124.37271546 86.90718056 124.39278138 88.41082793 122.75 90.875 C122.1725 91.24625 121.595 91.6175 121 92 C119.68 91.67 118.36 91.34 117 91 C117 94.3 117 97.6 117 101 C116.34 101 115.68 101 115 101 C116.14083176 104.03292954 116.14083176 104.03292954 118 107 C120.58414426 107.96906827 120.58414426 107.96906827 123 108 C122.5978125 106.14375 122.5978125 106.14375 122.1875 104.25 C121.89453125 102.03515625 121.89453125 102.03515625 122 100 C124.375 97.6875 124.375 97.6875 127 96 C127.33 95.01 127.66 94.02 128 93 C128.66 93 129.32 93 130 93 C130.33 91.02 130.66 89.04 131 87 C131.99 86.67 132.98 86.34 134 86 C134.33 85.34 134.66 84.68 135 84 C135.66 84 136.32 84 137 84 C137.99 82.515 137.99 82.515 139 81 C142.77709755 79.85623102 146.57210194 79.80506399 150.5 79.75 C151.6034375 79.72421875 152.706875 79.6984375 153.84375 79.671875 C157.3176737 80.03302548 159.17795554 80.99929684 162 83 C162 82.34 162 81.68 162 81 C179.24806258 72.0578692 179.24806258 72.0578692 186 73 C187.875 74.375 187.875 74.375 189 76 C189 76.66 189 77.32 189 78 C191.65228812 79.07525194 194.28368454 80.09456151 197 81 C197 81.66 197 82.32 197 83 C197.825 82.896875 198.65 82.79375 199.5 82.6875 C204.20593654 83.10767291 207.50185407 84.83007517 211 88 C211.6875 90.625 211.6875 90.625 211 93 C209.8125 94.875 209.8125 94.875 208 96 C205.3125 95.6875 205.3125 95.6875 203 95 C203 96.98 203 98.96 203 101 C200.525 101.495 200.525 101.495 198 102 C198.33 100.35 198.66 98.7 199 97 C198.0925 97.639375 197.185 98.27875 196.25 98.9375 C193 101 193 101 189 102 C188.34 104.97 187.68 107.94 187 111 C188.32 111.66 189.64 112.32 191 113 C193.11948265 116.17922398 193.21580045 116.5048677 192.84375 120.01953125 C191.80484339 128.72785281 191.80484339 128.72785281 194.9375 136.4140625 C197.58617014 137.9887292 200.0731606 139.04514459 203 140 C204.19302734 140.47566406 204.19302734 140.47566406 205.41015625 140.9609375 C207.25443442 141.69061561 209.12532963 142.3523866 211 143 C212 144 212 144 212.4375 146.5625 C211.88940106 150.8689917 210.21094874 152.75808888 207.50390625 156.04296875 C205.79347463 158.094047 205.79347463 158.094047 204.625 161.3125 C202.51936273 164.79490009 200.5302786 165.31227845 196.7421875 166.45703125 C194.99003229 166.85507252 194.99003229 166.85507252 194 168 C191.5 168.125 191.5 168.125 189 168 C188 167 188 167 187.8125 164.5625 C188 162 188 162 190 160 C191.42267364 159.51645867 192.86329463 159.0845092 194.3125 158.6875 C198.62807681 157.30233906 201.24459963 155.73312308 204 152 C204.16180586 149.39036678 204.16180586 149.39036678 204 147 C202.98679687 146.87882813 201.97359375 146.75765625 200.9296875 146.6328125 C199.5780849 146.46386217 198.22652458 146.29457331 196.875 146.125 C196.20984375 146.04636719 195.5446875 145.96773437 194.859375 145.88671875 C190.69621356 145.35611974 186.93328708 144.45813446 183 143 C182.34 143.99 181.68 144.98 181 146 C181.433125 146.4125 181.86625 146.825 182.3125 147.25 C185.34057765 150.39022867 187.44693695 152.77055011 187.6875 157.25 C187 161 187 161 185.0625 162.8125 C181.08391167 164.35521792 177.07895668 165.74698716 173 167 C173 171.37703615 173.7668947 172.42703151 176 176 C176.165 176.70125 176.33 177.4025 176.5 178.125 C177.12177886 180.45667071 178.2454578 181.39802669 180 183 C180 183.33 180 183.66 180 184 C152.61 184 125.22 184 97 184 C97 183.01 97 182.02 97 181 C95.88625 181.20625 94.7725 181.4125 93.625 181.625 C92.42875 181.74875 91.2325 181.8725 90 182 C88 180 88 180 87.875 177.375 C87.91625 176.59125 87.9575 175.8075 88 175 C86.68 175 85.36 175 84 175 C83.67 173.68 83.34 172.36 83 171 C81.88625 171.04125 80.7725 171.0825 79.625 171.125 C76 171 76 171 74 169 C73.60235737 167.01178687 73.26224651 165.01055661 73 163 C72.34 163 71.68 163 71 163 C70.773125 163.598125 70.54625 164.19625 70.3125 164.8125 C68.58478309 167.69202818 67.03800329 168.58226513 64 170 C60.1875 170.6875 60.1875 170.6875 57 171 C56.87882813 170.40832031 56.75765625 169.81664062 56.6328125 169.20703125 C55.60638763 164.24376413 55.60638763 164.24376413 53.875 159.5 C52.54925462 155.71215605 52.84413908 151.97445342 53 148 C51.35 148 49.7 148 48 148 C47.253055 155.14889329 47.253055 155.14889329 48.97265625 161.921875 C50.23401283 163.35681276 51.61801853 164.68083587 53 166 C55.89145771 169.82922778 57.57284896 172.13078384 57 177 C55.00045254 177.04254356 52.99958364 177.04080783 51 177 C50 176 50 176 49.9375 172.9375 C49.958125 171.968125 49.97875 170.99875 50 170 C49.0409375 169.814375 49.0409375 169.814375 48.0625 169.625 C47.381875 169.41875 46.70125 169.2125 46 169 C45.67 168.34 45.34 167.68 45 167 C44.34 167 43.68 167 43 167 C43.43224209 169.59345253 43.88183116 171.76366233 45.0625 174.125 C46 176 46 176 46 179 C43.125 179.125 43.125 179.125 40 179 C38 177 38 177 37.875 174.375 C37.91625 173.59125 37.9575 172.8075 38 172 C37.01 172 36.02 172 35 172 C35 171.01 35 170.02 35 169 C34.278125 168.979375 33.55625 168.95875 32.8125 168.9375 C28.67476978 167.55825659 26.98906485 164.6842129 25 161 C23.11740122 156.53726583 22 152.8725311 22 148 C19.03 148 16.06 148 13 148 C12.9175 148.825 12.835 149.65 12.75 150.5 C11.67699343 155.50736399 9.96611752 160.15571455 6.171875 163.71484375 C2.31807574 165.99523935 -1.66525158 165.48633763 -6 165 C-10.03084483 163.68559408 -11.43060025 161.64007598 -13.3125 158 C-15.52331143 152.61059221 -15.29173843 147.76183392 -15 142 C-20.28 141.67 -25.56 141.34 -31 141 C-31.33 136.05 -31.66 131.1 -32 126 C-30.515 125.505 -30.515 125.505 -29 125 C-28.87625 124.401875 -28.7525 123.80375 -28.625 123.1875 C-28 121 -28 121 -25.5625 119.3125 C-22.30378791 116.37171104 -22.30509989 114.35496184 -21.59375 110.17578125 C-20.69350516 106.87685771 -18.48921439 105.24029295 -16 103 C-14.74563813 100.36777038 -14.74563813 100.36777038 -14 98 C-13.67 97.67 -13.34 97.34 -13 97 C-12.63239269 94.67182036 -12.29758419 92.3381615 -12 90 C-12.66 90 -13.32 90 -14 90 C-14 89.34 -14 88.68 -14 88 C-13.01 88 -12.02 88 -11 88 C-11 86.68 -11 85.36 -11 84 C-11.7734375 83.90203125 -12.546875 83.8040625 -13.34375 83.703125 C-21.28147347 82.56355084 -27.83693233 81.32122105 -33.5 75.375 C-35 73 -35 73 -35 71 C-35.763125 71.350625 -36.52625 71.70125 -37.3125 72.0625 C-40 73 -40 73 -43 72 C-40.11117537 67.14677462 -36.89988276 62.96768499 -32 60 C-28.9375 59.6875 -28.9375 59.6875 -26 61 C-23.75741551 63.16560791 -21.84665358 65.49195631 -20 68 C-17.56052766 67.84110855 -17.56052766 67.84110855 -15 67 C-11.33878865 61.62432413 -10.55183858 54.7867836 -9.5703125 48.49609375 C-8.76071265 44.95270809 -7.27115937 42.80109656 -5 40 C-5.33 39.34 -5.66 38.68 -6 38 C-8.16409277 39.86147558 -8.16409277 39.86147558 -8.8125 42.5 C-10 45 -10 45 -12.625 46.3125 C-13.40875 46.539375 -14.1925 46.76625 -15 47 C-17.67818959 45.10294904 -18.00445634 43.97638137 -18.625 40.6875 C-17.85801178 36.16226953 -16.50068515 34.86992386 -12.95703125 32.15625 C-10.35183676 30.61705325 -8.0039397 30.14653364 -5 30 C-4.67 27.36 -4.34 24.72 -4 22 C-4.99 22.495 -4.99 22.495 -6 23 C-8.3329866 23.04022391 -10.66706666 23.04320247 -13 23 C-13 24.32 -13 25.64 -13 27 C-18.97802937 29.20927172 -23.73960391 28.93213141 -30 28 C-30 28.66 -30 29.32 -30 30 C-35.28 30 -40.56 30 -46 30 C-45 27 -45 27 -42.9375 25.8125 C-42.298125 25.544375 -41.65875 25.27625 -41 25 C-41.33 24.34 -41.66 23.68 -42 23 C-42.99 22.67 -43.98 22.34 -45 22 C-45 21.34 -45 20.68 -45 20 C-44.31292969 19.95101562 -43.62585938 19.90203125 -42.91796875 19.8515625 C-42.01691406 19.77679687 -41.11585938 19.70203125 -40.1875 19.625 C-39.29417969 19.55539062 -38.40085937 19.48578125 -37.48046875 19.4140625 C-34.75601501 19.13354964 -34.75601501 19.13354964 -32 17 C-29.95703125 16.8046875 -29.95703125 16.8046875 -27.8125 16.875 C-26.554375 16.91625 -25.29625 16.9575 -24 17 C-24.144375 15.96875 -24.28875 14.9375 -24.4375 13.875 C-23.95897061 9.63659685 -23.67911559 9.23016692 -20.625 6.625 C-16.22907891 3.24213068 -12.84650577 2.74539839 -7.375 2.4375 C-6.31539062 2.37272461 -6.31539062 2.37272461 -5.234375 2.30664062 C-3.48981463 2.20055249 -1.74493303 2.09977111 0 2 C0 1.34 0 0.68 0 0 Z " fill="#FEFBFB" transform="translate(692,740)"/>
<path d="M0 0 C4.20704032 3.48809494 6.25170605 7.1263842 8.1171875 12.15234375 C8.54448151 13.25109329 8.54448151 13.25109329 8.98040771 14.37203979 C9.6145337 16.00684546 10.24260285 17.64400962 10.86553955 19.28311157 C12.29876691 23.0518002 13.76317108 26.80819244 15.22457886 30.56602478 C16.0626014 32.72190786 16.89906302 34.87839818 17.73416138 37.03541565 C23.27741263 51.34074437 28.9692807 65.58710245 34.64532471 79.84011841 C37.67614985 87.45141331 40.7015246 95.06487545 43.72766495 102.67803383 C45.45131322 107.01414087 47.17539572 111.35007525 48.89941406 115.68603516 C52.86871087 125.66924969 56.8368937 135.65290677 60.8046875 145.63671875 C61.1229525 146.4375375 61.4412175 147.23835625 61.76912689 148.06344223 C63.69261621 152.90334349 65.61607321 157.7432576 67.53952026 162.58317566 C70.42994224 169.85625173 73.32042159 177.129305 76.2109375 184.40234375 C76.52948952 185.20388004 76.84804153 186.00541634 77.17624664 186.83124161 C80.795779 195.93860926 84.41564212 205.04584531 88.03613281 214.15283203 C88.37138348 214.99614043 88.70663414 215.83944883 89.05204391 216.70831203 C90.74324706 220.96241289 92.43458604 225.21645966 94.12615967 229.47041321 C97.42342022 237.76287492 100.71828474 246.05627413 104.0078125 254.35180664 C105.26799146 257.52890294 106.52843254 260.70589512 107.7890625 263.8828125 C108.09540871 264.65492758 108.40175491 265.42704266 108.71738434 266.22255516 C112.72627771 276.32287886 116.77263241 286.40716284 120.85735703 296.47704506 C122.61360924 300.81204349 124.35892197 305.15146012 126.105896 309.49020386 C127.02361153 311.75950171 127.94716978 314.02644691 128.87701416 316.290802 C130.13040307 319.34318659 131.3641627 322.40281089 132.59375 325.46484375 C132.95971283 326.34006683 133.32567566 327.21528992 133.70272827 328.11703491 C135.69341038 333.14137473 136.46259964 336.59335556 135 342 C132.75145424 344.58166365 131.48921183 344.9508165 128.0859375 345.29296875 C125 345 125 345 123.05078125 343.5234375 C122.19033203 342.45996094 122.19033203 342.45996094 121.3125 341.375 C120.63445312 340.55128906 119.95640625 339.72757813 119.2578125 338.87890625 C118.51273438 337.92886719 117.76765625 336.97882813 117 336 C116.14367357 334.92542695 115.28688258 333.851224 114.4296875 332.77734375 C112.07435864 329.81036794 109.74598652 326.82316163 107.42333984 323.83056641 C105.12739586 320.87773828 102.81307568 317.93941333 100.5 315 C97.75930296 311.5136078 95.01990345 308.02621812 92.28515625 304.53515625 C87.55387244 298.4986907 82.79781792 292.48376068 78 286.5 C71.8262081 278.80014689 65.73070714 271.04043427 59.64550781 263.27050781 C54.46230437 256.65436692 49.25762306 250.05722219 44 243.5 C38.74365357 236.94437 33.5405794 230.34861504 28.35888672 223.73388672 C26.07546705 220.82033183 23.78754555 217.91031584 21.5 215 C18.75951792 211.51343843 16.01990378 208.02621854 13.28515625 204.53515625 C8.55387244 198.4986907 3.79781792 192.48376068 -1 186.5 C-6.25634643 179.94437 -11.4594206 173.34861504 -16.64111328 166.73388672 C-19.38348529 163.23472646 -22.1317327 159.74017645 -24.87963867 156.24536133 C-27.15034395 153.35679895 -29.41821985 150.46611439 -31.6796875 147.5703125 C-36.01326513 142.02815173 -40.37821126 136.51993888 -44.84350586 131.08300781 C-49.75942018 125.08682404 -54.62132035 119.0491034 -59.3125 112.875 C-59.786875 112.27179932 -60.26125 111.66859863 -60.75 111.04711914 C-62.64680841 108.50629301 -63.9232318 106.3676518 -64.57421875 103.25 C-63.68205622 98.20048148 -61.60782798 93.7778351 -59.5 89.125 C-58.81659546 87.58851807 -58.81659546 87.58851807 -58.11938477 86.02099609 C-54.61852536 78.2139756 -50.949695 70.50956715 -46.99755859 62.92138672 C-45.96058625 60.9240856 -44.94298687 58.91758716 -43.92578125 56.91015625 C-35.44445997 40.34423308 -25.23394579 24.92543146 -14.33642578 9.86132812 C-13.41747555 8.58144567 -12.5101918 7.29313142 -11.61279297 5.99804688 C-8.04097168 0.86298241 -6.39732463 -0.75262643 0 0 Z " fill="#FF3131" transform="translate(471,270)"/>
<path d="M0 0 C4.23186347 3.70993364 7.37021459 8.03642192 10.5625 12.625 C11.33859619 13.73500366 11.33859619 13.73500366 12.13037109 14.86743164 C28.80463847 38.93148842 43.08341519 64.61447956 54.6875 91.5 C55.02668457 92.27077881 55.36586914 93.04155762 55.71533203 93.83569336 C57.45922356 97.99118264 58.82620855 101.44370287 58 106 C56.5396212 108.68036919 54.71886888 110.99814434 52.8125 113.375 C52.27439697 114.06835449 51.73629395 114.76170898 51.18188477 115.47607422 C49.47260712 117.66570804 47.74084025 119.83539617 46 122 C45.44989258 122.68513672 44.89978516 123.37027344 44.33300781 124.07617188 C41.6244868 127.43880798 38.89775239 130.7860088 36.16015625 134.125 C31.8050884 139.4459469 27.574702 144.86325595 23.34277344 150.28222656 C21.06766082 153.19271608 18.78336957 156.09598707 16.5 159 C13.75945374 162.48651101 11.01990368 165.97378158 8.28515625 169.46484375 C3.05509493 176.13768061 -2.213503 182.77754236 -7.51708984 189.39208984 C-12.72411346 195.89203106 -17.86488913 202.44320018 -23 209 C-29.13229282 216.8300581 -35.29555658 224.63269448 -41.51708984 232.39208984 C-46.26502233 238.3189464 -50.95806715 244.28793592 -55.64111328 250.26611328 C-58.3828512 253.76446446 -61.13074956 257.2579795 -63.87744141 260.75244141 C-66.15856239 263.65502423 -68.43828263 266.55868273 -70.71484375 269.46484375 C-75.94490507 276.13768061 -81.213503 282.77754236 -86.51708984 289.39208984 C-91.26502233 295.3189464 -95.95806715 301.28793592 -100.64111328 307.26611328 C-103.37833397 310.75870066 -106.12130461 314.24677712 -108.86425781 317.73486328 C-111.22283937 320.73493181 -113.57746963 323.73797753 -115.92578125 326.74609375 C-117.79687738 329.1427681 -119.67700868 331.53179347 -121.56640625 333.9140625 C-122.99361805 335.72384954 -124.40508208 337.54663823 -125.77734375 339.3984375 C-128.18440859 342.52698332 -129.79674939 343.928684 -133.5625 345.25 C-137 345 -137 345 -140 343.0625 C-142.19949826 339.69451829 -142.21691357 338.36128452 -141.60650635 334.49273682 C-140.27377112 329.0152044 -137.99986544 323.85301403 -135.8671875 318.6484375 C-135.32572652 317.30659773 -134.7851684 315.96439334 -134.24543762 314.62185669 C-133.08014963 311.72820599 -131.90909756 308.83698312 -130.73348999 305.94750977 C-128.83826357 301.28862888 -126.95657477 296.62435605 -125.07739258 291.95898438 C-124.42636811 290.34306964 -123.77532116 288.72716395 -123.12425232 287.11126709 C-122.79786711 286.3011895 -122.4714819 285.49111191 -122.13520622 284.65648651 C-121.12711884 282.15587443 -120.11776142 279.65577846 -119.10804749 277.15582275 C-112.22314927 260.10562926 -105.43191401 243.01862432 -98.6506424 225.92700958 C-97.02956895 221.84208838 -95.40710767 217.75771855 -93.78466797 213.67333984 C-91.49149554 207.9002653 -89.19855139 202.12710029 -86.90606308 196.35375404 C-82.68541148 185.72464718 -78.46240513 175.09647737 -74.23828125 164.46875 C-73.91850689 163.66420568 -73.59873253 162.85966137 -73.26926804 162.03073692 C-71.65578163 157.97127381 -70.0422578 153.91182556 -68.42871094 149.85238647 C-65.22964561 141.80400313 -62.03082782 133.75552141 -58.83203125 125.70703125 C-58.51487782 124.90904932 -58.19772438 124.11106739 -57.87096024 123.28890419 C-53.46326963 112.19877986 -49.05626453 101.10838333 -44.64974976 90.01779175 C-42.18261437 83.80836038 -39.71529224 77.59900322 -37.24793053 71.38966179 C-35.57447339 67.17821217 -33.90111878 62.96672187 -32.22802734 58.75512695 C-31.91172049 57.95894392 -31.59541363 57.16276089 -31.26952171 56.3424511 C-30.64326106 54.76599873 -30.01707124 53.18951822 -29.39095497 51.6130085 C-27.90136266 47.86297815 -26.41006646 44.11364521 -24.91464233 40.36593628 C-22.50198129 34.3167891 -20.09374124 28.2670402 -17.7527914 22.18970394 C-17.05819362 20.38789913 -16.35819579 18.58817894 -15.65803528 16.78852844 C-14.82336522 14.6408611 -13.99800029 12.48954272 -13.18412781 10.33390808 C-12.63726067 8.93462822 -12.63726067 8.93462822 -12.0793457 7.50708008 C-11.77164749 6.70256912 -11.46394928 5.89805817 -11.14692688 5.06916809 C-8.5610001 0.40390365 -5.16053994 -0.84253713 0 0 Z " fill="#FF3131" transform="translate(1099,270)"/>
<path d="M0 0 C0.72832031 0.53367187 1.45664062 1.06734375 2.20703125 1.6171875 C12.63529771 9.95182494 19.4890216 23.81748435 21 37 C21.95248348 56.64354864 21.23109835 74.6729005 7.75 90.25 C-1.02747366 99.39381229 -11.24749768 107.64694728 -24 110 C-15.44423134 123.55425918 -6.82118903 136.99930299 2.56445312 149.99951172 C4.05304437 152.07391932 5.52124203 154.16147389 6.984375 156.25390625 C12.44960532 164.06769894 17.99206105 171.80786328 23.78564453 179.3828125 C25.99030375 182.27122721 28.08388427 185.13161153 30.0390625 188.19921875 C35.34411111 196.47283711 41.20489067 199.16680749 50 203 C50.99 203.66 51.98 204.32 53 205 C53.29296875 207.1640625 53.29296875 207.1640625 53.1875 209.625 C53.14689453 210.85089844 53.14689453 210.85089844 53.10546875 212.1015625 C53.07066406 212.72804688 53.03585937 213.35453125 53 214 C47.50501168 214.19946903 42.01218019 214.34371476 36.5144043 214.43945312 C34.64912156 214.47940391 32.78408481 214.53378743 30.91967773 214.60351562 C12.06908286 215.29027718 12.06908286 215.29027718 4.1628418 208.26293945 C3.09223511 207.14278442 3.09223511 207.14278442 2 206 C1.01350464 204.99876099 1.01350464 204.99876099 0.00708008 203.97729492 C-1.7690456 202.05038644 -3.39663779 200.07206061 -5 198 C-5.50950195 197.34725098 -6.01900391 196.69450195 -6.54394531 196.02197266 C-25.51179981 171.1380407 -40.1775467 143.45959146 -53 115 C-62.57 114.67 -72.14 114.34 -82 114 C-81.67 141.06 -81.34 168.12 -81 196 C-68.625 199.465 -68.625 199.465 -56 203 C-53.39658344 205.60341656 -55 210.31821299 -55 214 C-83.05 214 -111.1 214 -140 214 C-140 210.7 -140 207.4 -140 204 C-131.64978826 200.40298571 -124.01658651 198.40442307 -115 196 C-114.67 133.3 -114.34 70.6 -114 6 C-119.94 5.01 -119.94 5.01 -126 4 C-129.98046875 2.74609375 -129.98046875 2.74609375 -133.1875 1.4375 C-134.27417969 1.00308594 -135.36085938 0.56867188 -136.48046875 0.12109375 C-139 -1 -139 -1 -140 -2 C-140.07205511 -3.68608966 -140.08386068 -5.37500659 -140.0625 -7.0625 C-140.05347656 -7.98160156 -140.04445313 -8.90070313 -140.03515625 -9.84765625 C-140.02355469 -10.55792969 -140.01195312 -11.26820312 -140 -12 C-138.74791748 -12.01981934 -137.49583496 -12.03963867 -136.20581055 -12.06005859 C-107.51211085 -12.40856214 -107.51211085 -12.40856214 -78.875 -14.0625 C-52.07994156 -16.29764505 -22.57222671 -16.79286432 0 0 Z M-82 5 C-82.09526806 7.95246354 -82.12552452 10.88148421 -82.11352539 13.83422852 C-82.11367142 14.76096375 -82.11381744 15.68769897 -82.1139679 16.64251709 C-82.11326838 19.72133687 -82.10547421 22.80009697 -82.09765625 25.87890625 C-82.09579221 28.00740018 -82.09436824 30.13589453 -82.09336853 32.26438904 C-82.08954228 37.8786232 -82.07971108 43.49283168 -82.06866455 49.10705566 C-82.05845273 54.83113253 -82.0538714 60.55521353 -82.04882812 66.27929688 C-82.03808891 77.51954256 -82.0210112 88.75976915 -82 100 C-77.94735382 100.07526343 -73.8949892 100.12911541 -69.84179688 100.16479492 C-68.46867774 100.17969923 -67.09560461 100.20002997 -65.72265625 100.22631836 C-50.53402982 100.50943969 -37.41378311 98.25687037 -25.6796875 87.96484375 C-13.4556625 75.15982896 -11.39378757 60.56033973 -11.6875 43.671875 C-12.14809897 32.02639767 -15.71212125 22.90712484 -24.2578125 14.87890625 C-34.25172195 6.34178925 -70.33985367 -6.66014633 -82 5 Z " fill="#006B37" transform="translate(712,1079)"/>
<path d="M0 0 C27.06 0 54.12 0 82 0 C82 3.63 82 7.26 82 11 C79.31531083 11.98750659 76.62766735 12.96512355 73.9375 13.9375 C73.18533203 14.21529297 72.43316406 14.49308594 71.65820312 14.77929688 C70.54155273 15.18051758 70.54155273 15.18051758 69.40234375 15.58984375 C68.72679443 15.83597412 68.05124512 16.08210449 67.35522461 16.33569336 C64.30679378 17.19552339 61.13553719 17.55206612 58 18 C58 47.04 58 76.08 58 106 C73.93723113 103.02638617 73.93723113 103.02638617 82.9453125 92.8828125 C83.45908447 92.11888184 83.97285645 91.35495117 84.50219727 90.56787109 C85.03772217 89.76172363 85.57324707 88.95557617 86.125 88.125 C90.16690365 82.12659728 94.25211694 76.18392699 98.5625 70.375 C102.91896869 64.49819008 107.16239592 58.55097311 111.3659668 52.56396484 C115.67121669 46.44146905 120.0490795 40.37334745 124.46044922 34.3269043 C128.10944476 29.30473718 131.59132051 24.1881103 135 19 C131.75220511 17.32933257 128.54216661 16.12332239 125.0625 15 C121.29574196 13.78092281 117.68476252 12.47390501 114 11 C114 7.37 114 3.74 114 0 C137.76 0 161.52 0 186 0 C186 3.3 186 6.6 186 10 C181.05326122 12.38503477 176.45003075 14.15667697 171.1015625 15.45629883 C162.14813664 17.77266493 158.29747982 21.01204297 153.32177734 28.99169922 C150.56021416 33.1876022 147.386306 37.09328095 144.3125 41.0625 C139.09243064 47.88438911 133.94686431 54.75484963 128.875 61.6875 C123.1333158 69.53223344 117.20564411 77.21656848 111.21875 84.875 C108.35106354 88.5445514 105.50091364 92.2261515 102.6875 95.9375 C101.99011719 96.85402344 101.29273438 97.77054688 100.57421875 98.71484375 C98.84725428 100.99527544 98.84725428 100.99527544 98 104 C98.8291582 105.72301071 98.8291582 105.72301071 100.2109375 107.40625 C100.70907959 108.06173828 101.20722168 108.71722656 101.72045898 109.39257812 C102.26645752 110.08802734 102.81245605 110.78347656 103.375 111.5 C104.20656616 112.5818457 104.20656616 112.5818457 105.05493164 113.68554688 C108.81570985 118.55441636 112.6579172 123.35479383 116.5859375 128.08984375 C119.60322113 131.72718404 122.58362954 135.39368307 125.5625 139.0625 C126.12775391 139.75802979 126.69300781 140.45355957 127.27539062 141.17016602 C130.17940878 144.74626908 133.07019732 148.33183612 135.9375 151.9375 C149.0503703 168.3700843 162.61599985 184.45387276 176.49609375 200.24291992 C177.50247655 201.41872138 178.47940505 202.62035342 179.42578125 203.8449707 C183.14296403 208.55899988 186.94012149 210.97558849 192.375 213.4375 C193.47908203 213.9624707 193.47908203 213.9624707 194.60546875 214.49804688 C196.3965877 215.34708378 198.1973426 216.17574454 200 217 C200 219.97 200 222.94 200 226 C194.22012369 226.17442752 188.44181381 226.30071193 182.65991211 226.38452148 C180.69772622 226.41949433 178.73571966 226.46709109 176.77416992 226.52807617 C156.88583091 227.13044633 156.88583091 227.13044633 149.03051758 220.9543457 C146.21515552 218.24459781 143.73656388 215.58044908 141.5 212.375 C140.58190146 211.13488306 139.66126452 209.89664193 138.73828125 208.66015625 C138.28404785 208.04414551 137.82981445 207.42813477 137.36181641 206.79345703 C135.25976142 204.02513579 132.97294618 201.42943582 130.6875 198.8125 C124.22489987 191.30859941 118.46580579 183.29028579 112.65625 175.27783203 C111.16611246 173.22845361 109.66513125 171.18794029 108.15625 169.15234375 C103.66332567 163.0869778 99.24630422 156.97274409 94.91040039 150.79394531 C93.72211482 149.10080493 92.52859863 147.41132325 91.32983398 145.72558594 C88.2883413 141.41759766 85.41579221 137.08428345 82.74609375 132.53515625 C82.21032715 131.65891602 81.67456055 130.78267578 81.12255859 129.87988281 C80.11468047 128.22122142 79.14662429 126.5373966 78.22900391 124.82714844 C76.6852103 122.11671836 76.6852103 122.11671836 73 119 C68.05 118.67 63.1 118.34 58 118 C58.33 147.7 58.66 177.4 59 208 C63.95 209.32 68.9 210.64 74 212 C78.9375 214.25 78.9375 214.25 82 216 C82 219.3 82 222.6 82 226 C54.94 226 27.88 226 0 226 C0 222.7 0 219.4 0 216 C17.52671756 209 17.52671756 209 26 209 C26 145.97 26 82.94 26 18 C21.71 17.34 17.42 16.68 13 16 C9.140625 14.74609375 9.140625 14.74609375 6.25 13.4375 C5.26515625 13.00308594 4.2803125 12.56867188 3.265625 12.12109375 C1 11 1 11 0 10 C0 6.7 0 3.4 0 0 Z " fill="#006B37" transform="translate(801,1067)"/>
<path d="M0 0 C3.63 0 7.26 0 11 0 C21.114383 26.02074863 31.19186935 52.05485078 41.16235352 78.13110352 C41.91289588 80.0939232 42.66346568 82.05673239 43.4140625 84.01953125 C43.78738205 84.99575943 44.1607016 85.97198761 44.54533386 86.97779846 C49.36113653 99.56547751 54.20789794 112.14125848 59.05197144 124.71807861 C63.74189349 136.89639554 68.41764489 149.07994983 73.06082726 161.27616501 C73.78853661 163.18757723 74.51652501 165.09888296 75.24458313 167.01016235 C77.56582538 173.10449392 79.88434252 179.19984404 82.19848633 185.296875 C83.0384763 187.50394352 83.87855938 189.71097661 84.71875 191.91796875 C85.09392258 192.90939377 85.46909515 193.90081879 85.8556366 194.92228699 C86.88521003 197.62261691 87.93493678 200.31348894 89 203 C89.50868622 204.30158806 89.50868622 204.30158806 90.02764893 205.62947083 C90.3623822 206.44203842 90.69711548 207.25460602 91.04199219 208.09179688 C91.33273621 208.80839478 91.62348022 209.52499268 91.92303467 210.26330566 C93.03632104 212.42100533 93.03632104 212.42100533 96.609375 213.61328125 C97.98297556 213.88257577 99.36430611 214.11463521 100.75 214.3125 C102.18367308 214.58795708 103.61601275 214.87045242 105.046875 215.16015625 C105.72943359 215.29309082 106.41199219 215.42602539 107.11523438 215.56298828 C110.77587499 216.41176376 113.7785429 218.12081669 117 220 C117 223.3 117 226.6 117 230 C89.28 230 61.56 230 33 230 C33 226.7 33 223.4 33 220 C49.95153714 212.87544091 49.95153714 212.87544091 59 213 C56.97450622 207.45361932 54.94809369 201.90757543 52.92089844 196.36181641 C52.23413408 194.48267267 51.54760315 192.6034436 50.86132812 190.72412109 C49.86392508 187.99292826 48.865727 185.26202752 47.8671875 182.53125 C47.54095398 181.63833252 47.21472046 180.74541504 46.87860107 179.82543945 C45.32950687 175.59428663 43.76756646 171.36896454 42.16894531 167.15625 C41.88745636 166.41370972 41.60596741 165.67116943 41.31594849 164.90612793 C40.79123266 163.52646276 40.26362685 162.14789197 39.7326355 160.77062988 C38 156.21854527 38 156.21854527 38 154 C12.92 154.33 -12.16 154.66 -38 155 C-48.395 183.71 -48.395 183.71 -59 213 C-55.7 213.33 -52.4 213.66 -49 214 C-46.0778316 214.76074041 -43.28812702 215.54706833 -40.4375 216.5 C-39.72787109 216.72558594 -39.01824219 216.95117188 -38.28710938 217.18359375 C-33.15714507 218.84285493 -33.15714507 218.84285493 -32 220 C-32 223.3 -32 226.6 -32 230 C-55.76 230 -79.52 230 -104 230 C-104 226.7 -104 223.4 -104 220 C-87.72900763 213 -87.72900763 213 -81 213 C-80.78718384 212.21085205 -80.78718384 212.21085205 -80.57006836 211.40576172 C-78.35587864 203.60954709 -75.44484615 196.10254648 -72.50921631 188.55810547 C-71.52893784 186.03874367 -70.5532603 183.51763917 -69.57861328 180.99609375 C-68.14683599 177.29271508 -66.71335849 173.59000082 -65.27880859 169.88769531 C-61.71399789 160.68281392 -58.17089042 151.46957188 -54.62747192 142.25643921 C-53.78704993 140.07133383 -52.94645116 137.88629643 -52.10568237 135.70132446 C-45.14932029 117.62279961 -38.23546799 99.52828365 -31.33480835 81.42843628 C-20.9720667 54.25388724 -10.49178861 27.12492677 0 0 Z M0 44 C-0.17313721 44.63647461 -0.34627441 45.27294922 -0.5246582 45.92871094 C-7.5690601 71.39403545 -16.8522632 96.04737554 -26.05810547 120.79443359 C-26.3874408 121.68201355 -26.71677612 122.56959351 -27.05609131 123.48406982 C-27.66743829 125.11357736 -28.28908314 126.73927359 -28.9229126 128.36016846 C-30.10130242 131.38754636 -31 133.71964356 -31 137 C-10.21 137 10.58 137 32 137 C29.66343113 129.10841681 29.66343113 129.10841681 26.97875977 121.3894043 C26.61150284 120.41106125 26.24424591 119.4327182 25.86585999 118.42472839 C25.47829025 117.40156021 25.09072052 116.37839203 24.69140625 115.32421875 C23.85350611 113.09180045 23.01561579 110.85937846 22.17773438 108.62695312 C20.871105 105.1578803 19.56317899 101.6892997 18.25463867 98.22094727 C16.98035338 94.83990126 15.71074764 91.45712334 14.44140625 88.07421875 C14.05586075 87.05712326 13.67031525 86.04002777 13.27308655 84.99211121 C9.0758451 73.79899186 5.71272926 62.57533689 3.40234375 50.8515625 C2.99407068 48.88780279 2.50439735 46.941294 2 45 C1.34 44.67 0.68 44.34 0 44 Z " fill="#006B37" transform="translate(1128,1063)"/>
<path d="M0 0 C0.91652344 0.01160156 1.83304687 0.02320313 2.77734375 0.03515625 C3.69644531 0.04417969 4.61554688 0.05320312 5.5625 0.0625 C6.27277344 0.07410156 6.98304688 0.08570313 7.71484375 0.09765625 C10.39156451 5.28486197 12.72142535 10.42593147 14.71875 15.90625 C14.99380875 16.64811554 15.26886749 17.38998108 15.55226135 18.15432739 C16.14931846 19.76476528 16.74457038 21.37587335 17.3381958 22.98757935 C18.99210656 27.47405548 20.66344457 31.95401738 22.3359375 36.43359375 C22.86725281 37.85687737 22.86725281 37.85687737 23.40930176 39.30891418 C27.45912025 50.12900573 31.64737848 60.89472327 35.83984375 71.66015625 C42.67387473 89.21967873 49.44226522 106.8028878 56.15234375 124.41015625 C64.19868885 145.52261568 72.28646651 166.61872459 80.40795898 187.70239258 C81.01121758 189.26889053 81.01121758 189.26889053 81.62666321 190.86703491 C82.37133697 192.80054042 83.11633549 194.73392091 83.86174011 196.66714478 C84.19498795 197.53229706 84.52823578 198.39744934 84.87158203 199.28881836 C85.34512367 200.50590988 85.34512367 200.50590988 85.82823181 201.74758911 C86.41596884 203.30545386 86.97409918 204.87483378 87.50099182 206.45431519 C88.14848535 208.36844998 88.92212359 210.23895923 89.71484375 212.09765625 C92.55656783 213.32411781 94.43825528 213.89424546 97.40234375 214.34765625 C98.84517236 214.63220331 100.28662683 214.92381401 101.7265625 215.22265625 C102.41540527 215.361875 103.10424805 215.50109375 103.81396484 215.64453125 C107.4750788 216.51725505 110.48675386 218.21460381 113.71484375 220.09765625 C113.71484375 223.39765625 113.71484375 226.69765625 113.71484375 230.09765625 C86.32484375 230.09765625 58.93484375 230.09765625 30.71484375 230.09765625 C30.71484375 226.79765625 30.71484375 223.49765625 30.71484375 220.09765625 C47.66638089 212.97309716 47.66638089 212.97309716 56.71484375 213.09765625 C56.3681665 212.19337891 56.02148926 211.28910156 55.66430664 210.35742188 C54.32701154 206.86849674 52.99088005 203.37912681 51.6550293 199.88964844 C51.08631625 198.40450849 50.51732348 196.91947561 49.94799805 195.43457031 C44.80266755 182.01356553 39.76197317 168.55666804 34.71484375 155.09765625 C9.63484375 154.76765625 -15.44515625 154.43765625 -41.28515625 154.09765625 C-42.27515625 157.72765625 -43.26515625 161.35765625 -44.28515625 165.09765625 C-45.50047607 168.63789975 -46.7416403 172.14873814 -48.04296875 175.65625 C-48.56574905 177.08361229 -48.56574905 177.08361229 -49.09909058 178.53981018 C-50.19852242 181.53984263 -51.30393217 184.53762246 -52.41015625 187.53515625 C-53.52263163 190.5579988 -54.63378619 193.58131299 -55.74264526 196.60548401 C-56.42924533 198.47721082 -57.11805704 200.34812821 -57.80935669 202.21812439 C-58.11993011 203.06323074 -58.43050354 203.9083371 -58.75048828 204.77905273 C-59.02345734 205.51864731 -59.29642639 206.25824188 -59.57766724 207.02024841 C-60.26199939 209.02966051 -60.80256848 211.03145094 -61.28515625 213.09765625 C-60.73730469 213.11183594 -60.18945312 213.12601563 -59.625 213.140625 C-50.98064838 213.66069168 -42.05155344 216.21445765 -34.28515625 220.09765625 C-34.28515625 223.39765625 -34.28515625 226.69765625 -34.28515625 230.09765625 C-58.37515625 230.09765625 -82.46515625 230.09765625 -107.28515625 230.09765625 C-107.28515625 226.79765625 -107.28515625 223.49765625 -107.28515625 220.09765625 C-105.51838277 219.31756255 -103.74642648 218.54920722 -101.97265625 217.78515625 C-100.49345703 217.14126953 -100.49345703 217.14126953 -98.984375 216.484375 C-95.28515625 215.09765625 -95.28515625 215.09765625 -92.69165039 214.92602539 C-89.24308812 214.544704 -87.22595592 213.98132826 -84.28515625 212.09765625 C-80.34430596 206.54329347 -78.53022976 199.535176 -76.34765625 193.16015625 C-75.63478995 191.1855662 -74.91714998 189.21269387 -74.19506836 187.24145508 C-72.66052535 183.04177552 -71.14646846 178.83546752 -69.64453125 174.62402344 C-66.14302804 164.86644764 -62.36624829 155.21490219 -58.61398315 145.55172729 C-56.4830346 140.05480953 -54.37088529 134.55068363 -52.2578125 129.046875 C-51.8403627 127.96030106 -51.4229129 126.87372711 -50.99281311 125.75422668 C-46.38309975 113.75438867 -41.78697984 101.74934689 -37.19302368 89.74346924 C-32.78092808 78.21301849 -28.36024095 66.68593308 -23.92578125 55.1640625 C-23.47529419 53.99350311 -23.02480713 52.82294373 -22.56066895 51.61691284 C-20.3774772 45.94470742 -18.19330374 40.27288231 -16.0078125 34.6015625 C-15.20952952 32.52868661 -14.41134937 30.45577112 -13.61328125 28.3828125 C-13.23514282 27.40120148 -12.85700439 26.41959045 -12.46740723 25.40823364 C-9.94155241 18.83943611 -7.4527557 12.25763461 -5.03497314 5.64820862 C-2.99468535 0.12797801 -2.99468535 0.12797801 0 0 Z M-2.28515625 43.09765625 C-2.48858643 43.83024658 -2.6920166 44.56283691 -2.90161133 45.31762695 C-9.07364594 67.22759897 -16.69351659 88.47705347 -24.77075195 109.75317383 C-25.17727997 110.82594574 -25.58380798 111.89871765 -26.00265503 113.0039978 C-26.76602792 115.01479966 -27.53287201 117.02428887 -28.3039856 119.03213501 C-28.8262825 120.40442764 -28.8262825 120.40442764 -29.35913086 121.80444336 C-29.65983994 122.58871201 -29.96054901 123.37298065 -30.27037048 124.18101501 C-31.75197568 128.43936289 -32.98958112 132.77907249 -34.28515625 137.09765625 C-13.16515625 137.09765625 7.95484375 137.09765625 29.71484375 137.09765625 C21.48546283 114.64064714 21.48546283 114.64064714 13.07275391 92.26416016 C6.93015271 76.06075219 1.86262414 60.18360241 -1.28515625 43.09765625 C-1.61515625 43.09765625 -1.94515625 43.09765625 -2.28515625 43.09765625 Z " fill="#006B37" transform="translate(425.28515625,1062.90234375)"/>
<path d="M0 0 C2.61593153 1.83115207 2.96989455 2.90968366 4 6 C5.11964446 16.12831068 5.20498631 26.32534002 5.2734375 36.50390625 C5.27876118 37.25710585 5.28408485 38.01030544 5.28956985 38.78632927 C5.31598877 42.7537826 5.33548147 46.72120748 5.35009766 50.6887207 C5.36354671 53.95429809 5.39164097 57.2192668 5.43212891 60.48461914 C5.48140024 64.46250611 5.50620547 68.43983363 5.51332474 72.41801262 C5.52002349 73.9239208 5.53520988 75.42981705 5.55921555 76.93554878 C5.59083586 79.03395727 5.59091401 81.1301757 5.58349609 83.22875977 C5.59158295 84.41897232 5.5996698 85.60918488 5.60800171 86.83546448 C4.615563 92.00092288 0.74194661 94.61287015 -3.3203125 97.62109375 C-3.92770264 98.07387695 -4.53509277 98.52666016 -5.16088867 98.99316406 C-5.80904541 99.46979492 -6.45720215 99.94642578 -7.125 100.4375 C-7.82020752 100.9540918 -8.51541504 101.47068359 -9.23168945 102.00292969 C-12.99031793 104.79179118 -16.7630229 107.56147832 -20.53515625 110.33203125 C-22.08596635 111.4713149 -23.63674716 112.61063842 -25.1875 113.75 C-25.97584229 114.32862793 -26.76418457 114.90725586 -27.57641602 115.50341797 C-33.62471251 119.95507108 -39.60158075 124.49473742 -45.5625 129.0625 C-52.68902103 134.52188808 -59.89190977 139.84714135 -67.19384766 145.06884766 C-73.02305222 149.25421396 -78.74093987 153.57371211 -84.4375 157.9375 C-93.40951047 164.81041097 -102.46952906 171.55105546 -111.58691406 178.22949219 C-114.16302416 180.11961263 -116.73437921 182.01606071 -119.3046875 183.9140625 C-120.17399902 184.55585449 -121.04331055 185.19764648 -121.93896484 185.85888672 C-123.6088189 187.09193624 -125.27842717 188.32531871 -126.94775391 189.55908203 C-127.69718262 190.11192871 -128.44661133 190.66477539 -129.21875 191.234375 C-129.87810547 191.72131836 -130.53746094 192.20826172 -131.21679688 192.70996094 C-135.13700408 195.54599255 -137.12016097 196.59753131 -142 196 C-144.375 194.4375 -144.375 194.4375 -146 192 C-146.70870288 187.37019509 -146.09500883 184.66855297 -143.5 180.8984375 C-142.35027357 179.37766836 -141.18232931 177.87056245 -140 176.375 C-139.37424072 175.55523682 -138.74848145 174.73547363 -138.10375977 173.89086914 C-136.08350141 171.24922337 -134.0417248 168.62507475 -132 166 C-129.97959466 163.36445557 -127.96582853 160.72394866 -125.953125 158.08251953 C-124.60225935 156.30983561 -123.24937212 154.53869053 -121.89453125 152.76904297 C-117.12544102 146.52802552 -112.50070249 140.19780369 -107.93334961 133.80834961 C-103.07360409 127.03784561 -98.01355618 120.42848784 -92.94140625 113.81640625 C-88.70139302 108.27427763 -84.55770808 102.67674372 -80.5 97 C-75.13016569 89.48758841 -69.56154505 82.14284906 -63.94140625 74.81640625 C-59.70138969 69.27427328 -55.55782889 63.67666042 -51.5 58 C-46.1550579 50.52540003 -40.62308365 43.20839753 -35.03369141 35.9152832 C-29.29038604 28.41126155 -23.67058214 20.82174496 -18.0859375 13.19921875 C-17.57643555 12.50618652 -17.06693359 11.8131543 -16.54199219 11.09912109 C-15.47110374 9.6413157 -14.40433503 8.1804786 -13.34082031 6.71728516 C-12.80811523 5.99202637 -12.27541016 5.26676758 -11.7265625 4.51953125 C-11.25041504 3.86702393 -10.77426758 3.2145166 -10.28369141 2.54223633 C-7.46178227 -0.84802613 -4.13975075 -0.29050882 0 0 Z " fill="#FF3131" transform="translate(1179,477)"/>
<path d="M0 0 C5.543948 0.5543948 7.51603379 3.86951707 10.93359375 8.0390625 C12.04927734 9.50472656 12.04927734 9.50472656 13.1875 11 C13.60942627 11.55357178 14.03135254 12.10714355 14.46606445 12.67749023 C18.78006711 18.36325139 23.00095401 24.11841767 27.22436523 29.87158203 C31.52993438 35.73372222 35.8778101 41.56241264 40.25 47.375 C45.10210108 53.82571965 49.91426275 60.30323175 54.6875 66.8125 C59.71367091 73.66513273 64.83245269 80.44092945 70 87.1875 C74.74271254 93.38004281 79.40131521 99.60651325 83.88378906 105.98950195 C87.70235066 111.38911257 91.72675858 116.62697107 95.75 121.875 C100.17490824 127.6469744 104.57017798 133.42260216 108.75 139.375 C112.87103193 145.24175298 117.20145943 150.93494871 121.5625 156.625 C123.61846153 159.32125505 125.67241966 162.01901786 127.72509766 164.71777344 C129.0594318 166.46878535 130.39756294 168.21691128 131.73974609 169.96191406 C133.5932516 172.3791218 135.42402308 174.81196235 137.25 177.25 C138.08688354 178.32749512 138.08688354 178.32749512 138.94067383 179.42675781 C142.20148469 183.83424461 143.554579 186.69354304 142.75 192.375 C141.125 194.8125 141.125 194.8125 138.75 196.375 C135.64908369 196.94683314 133.56945554 196.83176076 130.7890625 195.28198242 C128.48709336 193.67278473 126.27261719 191.98323788 124.0625 190.25 C122.35840178 188.95269291 120.65396542 187.65582987 118.94921875 186.359375 C118.08345215 185.69357422 117.21768555 185.02777344 116.32568359 184.34179688 C112.38639039 181.33374512 108.37806499 178.42225848 104.375 175.5 C96.71105443 169.86976748 89.14383665 164.1186143 81.59082031 158.34082031 C72.72722363 151.57124425 63.74837223 144.96376628 54.75 138.375 C43.96115999 130.47522175 33.24051283 122.50088622 22.62817383 114.36499023 C15.70308059 109.06697405 8.69435988 103.89049502 1.61328125 98.80273438 C0.87078125 98.26326172 0.12828125 97.72378906 -0.63671875 97.16796875 C-1.28858154 96.6989917 -1.94044434 96.23001465 -2.61206055 95.74682617 C-5.09977024 93.6632905 -6.16952459 91.89923845 -6.66064453 88.69995117 C-6.73395996 87.61689697 -6.80727539 86.53384277 -6.8828125 85.41796875 C-6.96684326 84.17845459 -7.05087402 82.93894043 -7.13745117 81.66186523 C-7.21781952 80.29547936 -7.29696748 78.92902126 -7.375 77.5625 C-7.41702545 76.86859161 -7.4590509 76.17468323 -7.50234985 75.45974731 C-8.2193237 63.41263454 -8.4383983 51.3792799 -8.4375 39.3125 C-8.43840637 38.52410736 -8.43931274 37.73571472 -8.44024658 36.9234314 C-8.43920836 28.96704702 -8.32681585 21.0135619 -7.92578125 13.06640625 C-7.86946533 11.89408447 -7.81314941 10.7217627 -7.75512695 9.51391602 C-6.92812318 4.37482103 -5.30539948 0.61216148 0 0 Z " fill="#FF3131" transform="translate(388.25,476.625)"/>
<path d="M0 0 C2.17724609 1.51123047 2.17724609 1.51123047 4 4 C4.3978143 6.91079972 4.56159 9.43548741 4.53125 12.34375 C4.53699036 13.55291077 4.53699036 13.55291077 4.54284668 14.78649902 C4.5455639 16.48772432 4.5382159 18.18899153 4.52148438 19.89013672 C4.5000699 22.49150896 4.52129019 25.09011972 4.546875 27.69140625 C4.54423169 29.34636025 4.53910663 31.00131254 4.53125 32.65625 C4.53934692 33.43238647 4.54744385 34.20852295 4.55578613 35.00817871 C4.50019029 38.21621871 4.43649475 40.43044225 2.44906616 43.02372742 C-0.67308322 45.54314413 -4.00917566 46.94684953 -7.70263672 48.4074707 C-8.47386871 48.72177536 -9.24510071 49.03608002 -10.03970337 49.35990906 C-12.58220125 50.39252841 -15.13051151 51.40977052 -17.6796875 52.42578125 C-19.45340974 53.13942788 -21.22693606 53.85356162 -23.00027466 54.56816101 C-26.71470189 56.06197616 -30.43219226 57.54783783 -34.15185547 59.02856445 C-38.91572993 60.92603642 -43.67013848 62.84606123 -48.42234612 64.77253437 C-52.08141387 66.25234472 -55.74582813 67.71852126 -59.41193008 69.18080711 C-61.16720877 69.88316511 -62.92066052 70.59010696 -64.67220688 71.30172157 C-67.12229499 72.29512287 -69.57913038 73.26953879 -72.03857422 74.23950195 C-72.75877747 74.53603668 -73.47898071 74.83257141 -74.2210083 75.13809204 C-78.55385589 76.81901214 -81.50775779 77.27387218 -86 76 C-87.875 74.875 -87.875 74.875 -89 73 C-89.5 69.625 -89.5 69.625 -89 66 C-85.20019855 61.69259148 -80.68534224 58.1303947 -76.25 54.5 C-75.50556641 53.88833984 -74.76113281 53.27667969 -73.99414062 52.64648438 C-68.22239995 47.93297707 -62.33136775 43.39521447 -56.38671875 38.90307617 C-51.23685157 34.99384804 -46.22274344 30.94414964 -41.25 26.8125 C-35.30535099 21.87349421 -29.30290033 17.05306516 -23.1328125 12.3984375 C-20.89840273 10.68780458 -18.71974484 8.95755083 -16.5546875 7.1640625 C-15.98073242 6.69774414 -15.40677734 6.23142578 -14.81542969 5.75097656 C-13.22510366 4.45648241 -11.64725842 3.14669818 -10.0703125 1.8359375 C-6.33378135 -0.39837502 -4.28397297 -0.66595404 0 0 Z " fill="#FF3131" transform="translate(1180,672)"/>
<path d="M0 0 C2.89077915 1.91185107 5.45559176 4.15948692 8.0625 6.4375 C9.58061287 7.72693221 11.10015603 9.01468228 12.62109375 10.30078125 C13.36601074 10.9345166 14.11092773 11.56825195 14.87841797 12.22119141 C17.73134002 14.61318105 20.66014786 16.87288803 23.625 19.125 C28.28106904 22.66778727 32.87628049 26.27345467 37.4375 29.9375 C43.99892882 35.2069977 50.6018421 40.42073745 57.2265625 45.61035156 C60.34042114 48.05034101 63.45143846 50.49394592 66.5625 52.9375 C67.13427979 53.38617432 67.70605957 53.83484863 68.29516602 54.29711914 C69.86479995 55.52968798 71.43245163 56.76477989 73 58 C73.93714844 58.72316406 74.87429688 59.44632813 75.83984375 60.19140625 C78.77144004 62.64588922 78.94700536 63.52304824 79.375 67.375 C79 71 79 71 76.9375 73.5 C73.07254541 75.47359383 71.22386271 74.85538068 67 74 C64.4097495 73.13318351 61.91261963 72.22761398 59.3840332 71.21191406 C58.6579184 70.92719238 57.93180359 70.6424707 57.1836853 70.34912109 C54.80275621 69.41272836 52.42659902 68.46490463 50.05078125 67.515625 C48.38894986 66.856173 46.72701688 66.19697695 45.06498718 65.5380249 C41.59051897 64.15808841 38.11862354 62.77189447 34.64819336 61.38183594 C30.20557564 59.60348543 25.7550841 57.84583751 21.30219746 56.0933876 C17.87090784 54.7393953 14.44505479 53.37205789 11.02058983 52.0009079 C9.38183923 51.34715969 7.74119916 50.69812691 6.09865761 50.05396271 C3.8025338 49.15172815 1.51461774 48.23114532 -0.7722168 47.30566406 C-1.44814377 47.04468933 -2.12407074 46.7837146 -2.82048035 46.51483154 C-7.08067886 44.76127674 -9.55020601 42.91460464 -12 39 C-12.39054469 36.19526276 -12.56240149 33.79397378 -12.53125 30.99609375 C-12.53699036 29.85564354 -12.53699036 29.85564354 -12.54284668 28.69215393 C-12.54555926 27.09106109 -12.53824379 25.48992344 -12.52148438 23.88891602 C-12.50003256 21.44121522 -12.52132018 18.99643911 -12.546875 16.54882812 C-12.54423218 14.98957687 -12.53910815 13.43032744 -12.53125 11.87109375 C-12.53934692 11.14184189 -12.54744385 10.41259003 -12.55578613 9.66123962 C-12.4918032 6.18881116 -12.26579849 4.33840337 -10.09179688 1.57055664 C-6.31029598 -1.26865849 -4.59705009 -1.31268367 0 0 Z " fill="#FF3131" transform="translate(394,674)"/>
<path d="M0 0 C2.1796875 1.43359375 2.1796875 1.43359375 4 4 C4.61763647 7.15537453 4.60382939 10.23082532 4.5625 13.4375 C4.59827148 14.7069043 4.59827148 14.7069043 4.63476562 16.00195312 C4.63283203 16.82501953 4.63089844 17.64808594 4.62890625 18.49609375 C4.62963135 19.24044678 4.63035645 19.9847998 4.63110352 20.75170898 C3.63984833 24.28303162 1.8587329 25.76085303 -1 28 C-3.70771362 28.70818548 -5.94311639 29.12107975 -8.6875 29.36328125 C-9.42645508 29.44499069 -10.16541016 29.52670013 -10.92675781 29.61088562 C-12.48899789 29.77957671 -14.05239886 29.9378067 -15.61669922 30.08618164 C-17.96740706 30.30940497 -20.31321531 30.56267449 -22.66015625 30.82226562 C-47.17991834 33.44711096 -47.17991834 33.44711096 -51.3125 30.16137695 C-53 28 -53 28 -53.625 25.0625 C-52.77407469 20.89296596 -50.36795873 19.29609579 -47 17 C-44.38094863 15.5855858 -41.68446684 14.4334801 -38.93359375 13.30078125 C-37.79882347 12.81909737 -37.79882347 12.81909737 -36.64112854 12.3276825 C-34.24390572 11.31284307 -31.84092841 10.31254056 -29.4375 9.3125 C-27.82056556 8.63050009 -26.20402496 7.94756564 -24.58789062 7.26367188 C-20.39787515 5.49447011 -16.20276042 3.73873725 -12 2 C-11.08484619 1.60965576 -10.16969238 1.21931152 -9.22680664 0.81713867 C-5.98714175 -0.37167378 -3.41555565 -0.37260607 0 0 Z " fill="#FF3131" transform="translate(1180,804)"/>
<path d="M0 0 C3.69806223 0.50428121 7.34514648 1.24753016 11 2 C10.814375 3.093125 10.62875 4.18625 10.4375 5.3125 C9.7421932 8.93624133 9.7421932 8.93624133 11 12 C9.35 12.66 7.7 13.32 6 14 C6 16.31 6 18.62 6 21 C8.74835321 19.97918309 11.06015733 18.9593938 13.5 17.3125 C16 16 16 16 18.625 16.125 C21.15572976 17.05737412 22.37626704 17.86350927 24 20 C24 20.66 24 21.32 24 22 C24.928125 22.185625 25.85625 22.37125 26.8125 22.5625 C30 24 30 24 31.75 27.5 C32.36875 29.2325 32.36875 29.2325 33 31 C33.66 31.66 34.32 32.32 35 33 C35.125 35.625 35.125 35.625 35 38 C38.11910856 39.79275866 40.67682428 40.34290718 44.25 40.625 C45.14203125 40.69976563 46.0340625 40.77453125 46.953125 40.8515625 C47.62859375 40.90054688 48.3040625 40.94953125 49 41 C48.62746094 40.55269531 48.25492188 40.10539063 47.87109375 39.64453125 C43.95883362 34.64493997 43.95883362 34.64493997 44.1875 31.0625 C44.455625 30.381875 44.72375 29.70125 45 29 C47.97 28.67 50.94 28.34 54 28 C54.67528223 29.57967807 55.33989694 31.16391903 56 32.75 C56.37125 33.63171875 56.7425 34.5134375 57.125 35.421875 C58 38 58 38 58 42 C49.87230636 42.13916149 41.74511222 42.24570025 33.61652088 42.31087303 C29.84181892 42.34215688 26.06793329 42.38457177 22.29370117 42.45263672 C18.64967039 42.51794061 15.00642351 42.55372822 11.36185265 42.56926346 C9.97310737 42.58033059 8.58440395 42.60194372 7.19599342 42.63438034 C-3.68583803 42.87844213 -3.68583803 42.87844213 -6.94441223 40.70027161 C-8.30664062 39.09838867 -8.30664062 39.09838867 -10 36 C-10.44988281 35.28714844 -10.89976562 34.57429687 -11.36328125 33.83984375 C-13.22905243 30.10062331 -14.53680307 27.2944246 -14 23 C-13.01 23 -12.02 23 -11 23 C-10.525625 23.969375 -10.05125 24.93875 -9.5625 25.9375 C-8.29806053 28.80477437 -8.29806053 28.80477437 -7 30 C-6.95907063 32.33297433 -6.95758277 34.66705225 -7 37 C-4.03 37 -1.06 37 2 37 C1.01512378 34.04537135 0.34402382 32.291899 -2.0625 30.25 C-4.96205746 26.88277199 -4.81531241 23.32168966 -5 19 C-4.34 18.67 -3.68 18.34 -3 18 C-2.5686713 15.31617696 -2.24807263 12.70173645 -2 10 C-1.8376918 8.35373113 -1.67111914 6.70787636 -1.5 5.0625 C-1.4278125 4.31097656 -1.355625 3.55945313 -1.28125 2.78515625 C-1 1 -1 1 0 0 Z " fill="#FE3636" transform="translate(805,882)"/>
<path d="M0 0 C2.04517649 0.80178941 4.0309506 1.68200385 6.02191162 2.61019897 C6.75102753 2.93602463 7.48014343 3.26185028 8.23135376 3.59754944 C10.54045603 4.63354235 12.83956443 5.68988524 15.13909912 6.74691772 C16.6892789 7.44551954 18.24005602 8.14279744 19.79144287 8.8387146 C39.19228938 17.57646768 39.19228938 17.57646768 41.01409912 21.43441772 C40.88909912 25.05941772 40.88909912 25.05941772 40.01409912 28.43441772 C32.23591672 33.61987266 18.29170453 30.0709916 9.20892334 29.00009155 C6.99080986 28.7442313 4.77075568 28.52003896 2.54925537 28.29574585 C1.12064741 28.13165628 -0.30774867 27.96570896 -1.73590088 27.79769897 C-3.00949463 27.65630493 -4.28308838 27.51491089 -5.59527588 27.36923218 C-9.70632003 26.2357941 -11.38113813 24.77384148 -13.98590088 21.43441772 C-14.58526611 19.36972046 -14.58526611 19.36972046 -14.54449463 17.36801147 C-14.53740479 16.63517944 -14.53031494 15.90234741 -14.52301025 15.14730835 C-14.49013916 14.39642944 -14.45726807 13.64555054 -14.42340088 12.87191772 C-14.4176001 12.11717163 -14.41179932 11.36242554 -14.40582275 10.58480835 C-14.32233894 6.79464339 -14.23583639 3.58112469 -11.98590088 0.43441772 C-8.28067389 -1.41819577 -3.91850779 -1.11598649 0 0 Z " fill="#FF3131" transform="translate(395.98590087890625,805.5655822753906)"/>
<path d="M0 0 C7 0 7 0 9.59765625 2.46484375 C10.44079551 3.6068129 11.26116826 4.76581541 12.0625 5.9375 C12.99586567 7.21431481 13.93221469 8.48895261 14.87109375 9.76171875 C15.36722168 10.44411621 15.86334961 11.12651367 16.37451172 11.82958984 C19.31332643 15.75360047 22.48145464 19.48956855 25.625 23.25 C26.82745779 24.69109433 28.02812295 26.1336873 29.2265625 27.578125 C29.73783691 28.19075195 30.24911133 28.80337891 30.77587891 29.43457031 C32 31 32 31 33 33 C33.03758423 31.55379272 33.03758423 31.55379272 33.07592773 30.07836914 C33.16985306 26.51312158 33.27010939 22.94807567 33.37231445 19.38305664 C33.41571985 17.83785711 33.45739071 16.29260786 33.49731445 14.74731445 C33.55488199 12.53060904 33.61861424 10.3141552 33.68359375 8.09765625 C33.70866249 7.05545677 33.70866249 7.05545677 33.73423767 5.99220276 C33.88612829 1.11387171 33.88612829 1.11387171 35 0 C37.31 0 39.62 0 42 0 C42 16.17 42 32.34 42 49 C35 49 35 49 33.09472656 47.66162109 C32.61487305 47.03852051 32.13501953 46.41541992 31.640625 45.7734375 C31.08721436 45.07734375 30.53380371 44.38125 29.96362305 43.6640625 C29.39812744 42.90867187 28.83263184 42.15328125 28.25 41.375 C27.6516333 40.611875 27.0532666 39.84875 26.43676758 39.0625 C25.20789939 37.49121919 23.98825482 35.91268213 22.77783203 34.32714844 C20.59868938 31.474692 18.37349634 28.66052993 16.14550781 25.84619141 C14.75946984 24.09113127 13.38416413 22.3281977 12.01171875 20.5625 C10.23839123 18.19854243 10.23839123 18.19854243 9 17 C8.67 27.56 8.34 38.12 8 49 C5.36 49 2.72 49 0 49 C0 32.83 0 16.66 0 0 Z " fill="#FF3131" transform="translate(585,1377)"/>
<path d="M0 0 C6 0 6 0 7.94921875 1.4765625 C8.52285156 2.18554688 9.09648438 2.89453125 9.6875 3.625 C10.36167969 4.44355469 11.03585937 5.26210937 11.73046875 6.10546875 C12.47941406 7.06066406 13.22835937 8.01585937 14 9 C14.8915621 10.12138403 15.78350743 11.24246344 16.67578125 12.36328125 C18.49439226 14.65839654 20.29943155 16.96320119 22.09375 19.27734375 C25.68931528 23.88295357 29.34995588 28.43744485 33 33 C33.33 22.11 33.66 11.22 34 0 C36.64 0 39.28 0 42 0 C42 16.17 42 32.34 42 49 C35 49 35 49 32.078125 46.4296875 C31.11374625 45.26236116 30.17203094 44.07605623 29.25 42.875 C28.74412354 42.25061035 28.23824707 41.6262207 27.71704102 40.98291016 C26.12316293 39.00472952 24.56087717 37.00428065 23 35 C21.96359731 33.69683571 20.92586085 32.39473094 19.88671875 31.09375 C16.19056854 26.44534276 12.56351782 21.75135709 9 17 C8.67 27.56 8.34 38.12 8 49 C5.36 49 2.72 49 0 49 C0 32.83 0 16.66 0 0 Z " fill="#FF3131" transform="translate(949,1377)"/>
<path d="M0 0 C5.37753378 5.62765163 6.93865723 11.00850418 7.25 18.75 C6.99591989 26.347815 5.25820409 32.22685573 -0.1796875 37.6875 C-7.44691276 43.56914535 -15.19159991 44.6218193 -24.3125 43.8125 C-30.8322962 42.58098294 -35.95658608 39.8585717 -40.3125 34.8125 C-44.71587747 27.98659572 -46.54356407 20.69656894 -44.8515625 12.609375 C-42.78542571 5.46297247 -39.1089077 0.28207671 -32.6875 -3.5625 C-21.32541208 -9.03313492 -10.12138572 -6.68393396 0 0 Z M-34.25 7.9375 C-36.99412602 12.2722889 -37.58995574 16.7448526 -37.3125 21.8125 C-35.76125516 27.06949642 -33.54792139 30.34715522 -29.3125 33.8125 C-23.13884255 37.1279827 -18.47040519 37.75433137 -11.75 35.75 C-6.12634006 32.58030076 -2.55172994 28.72158246 -0.75 22.4375 C0.09445835 17.38798373 -0.9653496 13.31412427 -3.3125 8.8125 C-6.82699707 4.44312527 -10.74957409 1.35554819 -16.4140625 0.4921875 C-23.64599201 0.11940763 -29.58101011 2.27852371 -34.25 7.9375 Z " fill="#FF3131" transform="translate(555.3125,1383.1875)"/>
<path d="M0 0 C2.64 0 5.28 0 8 0 C8.45850342 1.03294189 8.91700684 2.06588379 9.3894043 3.13012695 C11.11287397 7.0125055 12.83698624 10.89459841 14.5612793 14.77661133 C15.30331289 16.44743356 16.04517899 18.11833019 16.78686523 19.78930664 C17.86136073 22.21000081 18.93648436 24.6304152 20.01171875 27.05078125 C20.35886932 27.83317169 20.7060199 28.61556213 21.06369019 29.42166138 C23.3905067 34.65718928 25.76460211 39.86861054 28.19848633 45.05541992 C29 47 29 47 29 49 C26.36 49 23.72 49 21 49 C20.16180842 47.37750059 19.3295884 45.75191503 18.5 44.125 C18.0359375 43.22007813 17.571875 42.31515625 17.09375 41.3828125 C16 39 16 39 16 37 C7.75 37 -0.5 37 -9 37 C-9.99 39.97 -10.98 42.94 -12 46 C-12.66 46.99 -13.32 47.98 -14 49 C-15.9453125 49.29296875 -15.9453125 49.29296875 -18.125 49.1875 C-19.40375 49.125625 -20.6825 49.06375 -22 49 C-20.49423871 44.1556644 -18.56424429 39.63513717 -16.4453125 35.0390625 C-16.10249237 34.289664 -15.75967224 33.5402655 -15.40646362 32.76815796 C-14.68339973 31.18917307 -13.95885432 29.61086587 -13.23291016 28.03320312 C-12.13230664 25.64088205 -11.03646759 23.24642473 -9.94140625 20.8515625 C-9.2346557 19.30976713 -8.5276332 17.76809639 -7.8203125 16.2265625 C-7.33572067 15.168358 -7.33572067 15.168358 -6.84133911 14.08877563 C-4.65510154 9.34255406 -2.35654354 4.66408769 0 0 Z M3 10 C-1.455 20.395 -1.455 20.395 -6 31 C0.27 31 6.54 31 13 31 C10.29768544 23.79382785 7.60075388 16.801424 4 10 C3.67 10 3.34 10 3 10 Z " fill="#FF3131" transform="translate(900,1377)"/>
<path d="M0 0 C1.2077558 3.62326739 0.54311128 4.64146369 -1 8 C-2.0725 7.505 -3.145 7.01 -4.25 6.5 C-9.65167179 4.47437308 -15.3063161 4.17034892 -21 5 C-23.34206031 6.25001837 -23.34206031 6.25001837 -25 8 C-25.66666667 10.5 -25.66666667 10.5 -25 13 C-21.17451821 16.73809769 -16.02134088 17.63952853 -11.01953125 19.01757812 C-5.85838727 20.51926691 -0.98916098 22.37792416 2.375 26.8125 C3.63856716 31.23498505 3.39804065 34.87221817 1.875 39.1875 C-0.6067992 42.9101988 -3.5142839 45.19469241 -7.80859375 46.5859375 C-16.27065528 48.1848297 -25.63466205 47.84050607 -33 43 C-34.32421875 41 -34.32421875 41 -35 39 C-34.125 36.75 -34.125 36.75 -33 35 C-30.15858742 35.92511107 -27.36889776 36.83597769 -24.63671875 38.05078125 C-19.20637837 40.00570379 -13.18680075 39.81469048 -7.8125 37.8125 C-5.79178436 36.11479706 -5.79178436 36.11479706 -5.4375 33.5 C-5.77573067 30.95442652 -5.77573067 30.95442652 -7.51171875 29.4921875 C-11.5641589 27.06199576 -16.06550959 26.19435354 -20.625 25.0703125 C-25.88911688 23.6566274 -29.12386113 21.87613887 -33 18 C-34.73436191 12.79691428 -34.76981912 8.66794144 -32.5 3.75 C-24.25616828 -5.31821489 -10.5233337 -5.57117667 0 0 Z " fill="#FF3131" transform="translate(685,1380)"/>
<path d="M0 0 C2.31 0 4.62 0 7 0 C7.01981934 0.83660156 7.03963867 1.67320313 7.06005859 2.53515625 C7.13870107 5.67390346 7.22541003 8.81230086 7.31738281 11.95068359 C7.37396123 13.96305333 7.42144088 15.97567227 7.46875 17.98828125 C7.42760414 29.37308587 7.42760414 29.37308587 11.9375 39.4375 C15.79747996 42.36172724 19.29620312 42.31890148 24 42 C27.1808276 40.7996877 29.30167033 39.96436002 31.3125 37.1875 C32.86994578 32.23199069 33.15645598 27.23442126 33.31640625 22.0703125 C33.37924805 20.13671875 33.37924805 20.13671875 33.44335938 18.1640625 C33.48316028 16.81771091 33.52287273 15.47135671 33.5625 14.125 C33.60575183 12.75519667 33.64936812 11.38540479 33.69335938 10.015625 C33.79915522 6.67717843 33.90124372 3.338661 34 0 C36.31 0 38.62 0 41 0 C41.09948577 4.98041064 41.17175686 9.96023252 41.21972656 14.94140625 C41.2397406 16.63291511 41.26696073 18.32435567 41.30175781 20.015625 C41.35073065 22.45850554 41.37307033 24.90046511 41.390625 27.34375 C41.41127014 28.08991577 41.43191528 28.83608154 41.45318604 29.6048584 C41.45552114 35.17081336 40.04395605 39.32878253 37 44 C32.17981791 48.82018209 27.29481082 50.10061374 20.625 50.3125 C14.94360821 50.1812722 9.84301286 49.52389917 5.46875 45.640625 C0.48323428 40.01742704 -0.29404106 34.92139367 -0.1953125 27.63671875 C-0.1924826 26.84473587 -0.18965271 26.05275299 -0.18673706 25.23677063 C-0.17558863 22.72019001 -0.15049422 20.20397211 -0.125 17.6875 C-0.11496329 15.97591662 -0.10583864 14.26432763 -0.09765625 12.55273438 C-0.07566681 8.36835094 -0.04117408 4.18423686 0 0 Z " fill="#FF3131" transform="translate(710,1377)"/>
<path d="M0 0 C2.03648491 3.42302783 1.99995339 6.0059195 1.96875 9.96875 C1.9790625 11.2784375 1.989375 12.588125 2 13.9375 C1.46875 17.46875 1.46875 17.46875 0 19.9375 C-6.81482841 24.06005052 -17.40783452 20.77246173 -24.84375 19.59375 C-26.59268555 19.33271484 -26.59268555 19.33271484 -28.37695312 19.06640625 C-30.0562793 18.80537109 -30.0562793 18.80537109 -31.76953125 18.5390625 C-33.286073 18.30340576 -33.286073 18.30340576 -34.83325195 18.06298828 C-37.41221485 17.49496768 -39.31437689 16.8931435 -41.53125 15.46875 C-43.14218139 12.17366307 -43.72494815 10.32102184 -42.90625 6.71875 C-41.28275822 4.06212709 -40.37721447 3.62791148 -37.53125 2.46875 C-35.62354491 2.04857498 -33.6997951 1.69838287 -31.76953125 1.3984375 C-30.64998047 1.22441406 -29.53042969 1.05039062 -28.37695312 0.87109375 C-27.21099609 0.69707031 -26.04503906 0.52304687 -24.84375 0.34375 C-23.69712891 0.16199219 -22.55050781 -0.01976562 -21.36914062 -0.20703125 C-4.57041946 -2.76482165 -4.57041946 -2.76482165 0 0 Z " fill="#FF3131" transform="translate(1182.53125,913.53125)"/>
<path d="M0 0 C1.89573956 1.56119728 3.38411469 3.13163261 5 5 C3.02 6.65 1.04 8.3 -1 10 C-1.928125 9.360625 -2.85625 8.72125 -3.8125 8.0625 C-8.80452751 4.83236455 -13.17457544 4.15300774 -19 5 C-23.52502152 6.95380894 -27.53030931 9.64172232 -30 14 C-31.81205684 19.43617053 -31.7099836 24.98215186 -29.8125 30.375 C-26.7740872 34.77545992 -23.16250734 37.55930028 -18 39 C-12.16560862 39.57387456 -8.81041921 38.82434226 -3.76171875 35.875 C-2 35 -2 35 1 35 C3.1875 36.5 3.1875 36.5 5 38 C3.63880608 42.08358176 1.66807348 42.85452306 -2 45 C-8.38811458 48.04195932 -15.95525864 47.95811604 -22.75390625 46.34765625 C-29.43828861 43.96985306 -34.39960901 40.29993225 -38.09375 34.19140625 C-41.1979946 27.2787134 -41.17341382 18.69920521 -38.8125 11.5625 C-36.92486371 7.85231833 -35.14533524 5.69600163 -32 3 C-30.7934375 1.9171875 -30.7934375 1.9171875 -29.5625 0.8125 C-21.1012967 -5.17225356 -8.94188774 -4.63062043 0 0 Z " fill="#FF3131" transform="translate(1054,1380)"/>
<path d="M0 0 C1.03071188 0.96831452 2.0410145 1.96060267 3 3 C1.63016497 6.16115776 1.0109362 6.9927092 -2 9 C-2.928125 8.360625 -3.85625 7.72125 -4.8125 7.0625 C-9.86897782 3.79066141 -14.12052738 3.32452661 -20 4 C-24.39358303 5.34890707 -27.3131353 7.26029956 -30.4375 10.625 C-33.14107814 16.46472877 -33.70104932 21.62422176 -31.875 27.8125 C-29.26558087 32.24851252 -26.85383845 35.15368245 -22.125 37.3125 C-15.4720681 38.77614502 -11.09531523 37.99015464 -5 35 C-3.7934375 34.4121875 -3.7934375 34.4121875 -2.5625 33.8125 C-2.046875 33.544375 -1.53125 33.27625 -1 33 C0.32 34.32 1.64 35.64 3 37 C1.72168567 40.97697791 -0.68124732 42.25108607 -4.1484375 44.16796875 C-10.35829935 46.95847629 -18.07560342 47.0957344 -24.57421875 45.28125 C-31.90604162 42.19416669 -36.82197647 38.24431174 -40.23828125 30.96484375 C-42.96604009 23.9286248 -42.62282917 17.1746071 -40.0390625 10.171875 C-36.96485778 3.7460937 -32.30675965 0.03658798 -26 -3 C-17.4085638 -5.74116487 -7.58086749 -4.90623242 0 0 Z " fill="#FF3131" transform="translate(489,1381)"/>
<path d="M0 0 C1.69632121 0.23003837 3.39296039 0.45773942 5.08984375 0.68359375 C6.89353164 0.93271561 8.69691865 1.18402547 10.5 1.4375 C11.37277588 1.55931641 12.24555176 1.68113281 13.14477539 1.80664062 C13.97356201 1.93103516 14.80234863 2.05542969 15.65625 2.18359375 C16.39681641 2.29243896 17.13738281 2.40128418 17.90039062 2.51342773 C20.21217961 3.04917139 21.97935586 3.75446063 24 5 C25.4375 7.75 25.4375 7.75 26 11 C24.9296875 14.09375 24.9296875 14.09375 23 17 C20.13671875 18.171875 20.13671875 18.171875 16.6875 18.75 C15.44226563 18.96785156 14.19703125 19.18570313 12.9140625 19.41015625 C10.97660156 19.70212891 10.97660156 19.70212891 9 20 C7.74960937 20.20496094 6.49921875 20.40992188 5.2109375 20.62109375 C-10.22803632 23.01793658 -10.22803632 23.01793658 -14.9375 20.3125 C-18.19047576 15.08802378 -17.90226382 9.97940937 -17 4 C-13.27336266 -3.1870863 -6.87644027 -1.06496665 0 0 Z " fill="#FF3131" transform="translate(399,913)"/>
<path d="M0 0 C3.12825756 -0.50144696 5.88847225 -0.67181451 9 0 C11.49885439 2.31534831 12.82706416 5.08921853 14.3125 8.125 C15.11977563 9.64913639 15.92834851 11.17258645 16.73828125 12.6953125 C17.30216553 13.79214355 17.30216553 13.79214355 17.87744141 14.91113281 C19.40349339 17.75082416 21.15567479 20.35801468 23 23 C25.544665 20.69728523 27.03320571 18.3550962 28.63671875 15.33203125 C29.13236328 14.43935547 29.62800781 13.54667969 30.13867188 12.62695312 C31.17169217 10.74980024 32.18480677 8.86155559 33.17773438 6.96289062 C36.94344313 0.29676435 36.94344313 0.29676435 40.17822266 -0.61181641 C42.39453125 -0.61328125 42.39453125 -0.61328125 46 0 C45.36271513 3.93995469 43.42051827 6.63734416 41.21875 9.91796875 C28.94655574 27.88396304 28.94655574 27.88396304 27 49 C24.36 49 21.72 49 19 49 C19.1134375 48.00226563 19.226875 47.00453125 19.34375 45.9765625 C20.19283311 30.58533347 12.04822002 19.81515155 3.67993164 7.66870117 C2.10191025 5.16189231 0.9962007 2.78173042 0 0 Z " fill="#FF3131" transform="translate(1073,1377)"/>
<path d="M0 0 C13.53 0 27.06 0 41 0 C41 2.31 41 4.62 41 7 C35.39 7 29.78 7 24 7 C24 20.86 24 34.72 24 49 C21.36 49 18.72 49 16 49 C16 35.14 16 21.28 16 7 C10.72 7 5.44 7 0 7 C0 4.69 0 2.38 0 0 Z " fill="#FF3131" transform="translate(825,1377)"/>
<path d="M0 0 C2.64 0 5.28 0 8 0 C8 14.19 8 28.38 8 43 C16.58 43 25.16 43 34 43 C34 44.98 34 46.96 34 49 C22.78 49 11.56 49 0 49 C0 32.83 0 16.66 0 0 Z " fill="#FF3131" transform="translate(778,1377)"/>
<path d="M0 0 C5.16192076 3.14480095 9.16943929 6.9303009 13.375 11.25 C14.33599609 12.22453125 14.33599609 12.22453125 15.31640625 13.21875 C16.88229364 14.80800885 18.44328509 16.40176417 20 18 C19 21 19 21 17 23 C16.29289322 24.64991582 15.62056011 26.31562256 15 28 C14.34 28 13.68 28 13 28 C12.9175 28.5775 12.835 29.155 12.75 29.75 C12 32 12 32 9.9375 33.8125 C7.61707972 35.98295695 7.61707972 35.98295695 7.75 39.75 C7.87375 41.35875 7.87375 41.35875 8 43 C5.6875 43.3125 5.6875 43.3125 3 43 C1.125 40.9375 1.125 40.9375 0 38 C0.3125 34.5625 0.3125 34.5625 1 31 C1.03635763 29.0003305 1.04876598 26.99940538 1 25 C2.175625 25.309375 2.175625 25.309375 3.375 25.625 C4.674375 25.810625 4.674375 25.810625 6 26 C8.22081212 24.18506707 8.22081212 24.18506707 8.3125 21.625 C8.228202 18.9623467 8.228202 18.9623467 6.5625 17.1875 C4.85703935 14.79985508 4.74424469 13.78528919 4.5 10.9375 C4.33297124 7.1466582 4.33297124 7.1466582 2.625 5.0625 C0.86586082 3.81390177 0.86586082 3.81390177 -2 3 C-1 1 -1 1 0 0 Z " fill="#FF3939" transform="translate(807,805)"/>
<path d="M0 0 C1.01707031 0.30744141 1.01707031 0.30744141 2.0546875 0.62109375 C7.76413541 2.27382867 13.16707914 3.39592638 19.1015625 3.7890625 C21 4 21 4 22 5 C22.125 8.1875 22.125 8.1875 21 12 C16.41178044 16.33331847 11.10446096 18.70117852 5 20 C4 19 4 19 3.8125 15.4375 C3.26090676 10.17834372 0.38082732 6.88743447 -3 3 C-2.01 2.01 -1.02 1.02 0 0 Z " fill="#FF3939" transform="translate(875,882)"/>
<path d="M0 0 C4.55555556 0.55555556 4.55555556 0.55555556 6 2 C6.34285862 5.63430137 6.56111317 8.08181482 4.625 11.25 C1.95148344 13.03234437 0.08354101 13.55298474 -3 14.3125 C-6.61800888 15.23913635 -6.61800888 15.23913635 -9.3984375 17.56640625 C-10.35252334 19.33337322 -11.17857622 21.16759311 -12 23 C-12.721875 23.845625 -13.44375 24.69125 -14.1875 25.5625 C-16.30118607 28.40504334 -16.67549083 30.51152642 -17 34 C-18.32 33.67 -19.64 33.34 -21 33 C-19.36434952 28.87192974 -18.2046212 26.07109532 -15 23 C-14.3503125 21.700625 -14.3503125 21.700625 -13.6875 20.375 C-11.49148817 15.98297634 -8.76144682 12.05157158 -6 8 C-5.24879359 6.85495722 -4.49860762 5.7092435 -3.75 4.5625 C-2 2 -2 2 0 0 Z " fill="#FF7777" transform="translate(808,761)"/>
<path d="M0 0 C0.53109375 0.27585937 1.0621875 0.55171875 1.609375 0.8359375 C4.44583387 2.21708904 7.33419657 3.42064641 10.25 4.625 C11.32765625 5.07101562 12.4053125 5.51703125 13.515625 5.9765625 C14.74539063 6.48316406 14.74539063 6.48316406 16 7 C16 7.66 16 8.32 16 9 C16.99 9.33 17.98 9.66 19 10 C19 11.65 19 13.3 19 15 C14.49646738 16.75747614 10.82360189 17.19294408 6 17 C5.54625 15.88625 5.0925 14.7725 4.625 13.625 C3.27534014 10.03800992 3.27534014 10.03800992 1 8 C0.43479997 5.34462628 0.26211802 2.70855287 0 0 Z " fill="#FF3E3E" transform="translate(853,885)"/>
<path d="M0 0 C2.02045442 0.60183749 4.02111039 1.27306096 6 2 C6.33 2.66 6.66 3.32 7 4 C6.34 4 5.68 4 5 4 C4.9175 4.5775 4.835 5.155 4.75 5.75 C4 8 4 8 1.9375 9.8125 C-0.38292028 11.98295695 -0.38292028 11.98295695 -0.25 15.75 C-0.1675 16.8225 -0.085 17.895 0 19 C-2.3125 19.3125 -2.3125 19.3125 -5 19 C-6.875 16.9375 -6.875 16.9375 -8 14 C-7.6875 10.5625 -7.6875 10.5625 -7 7 C-6.96364237 5.0003305 -6.95123402 2.99940538 -7 1 C-5.824375 1.309375 -5.824375 1.309375 -4.625 1.625 C-3.75875 1.74875 -2.8925 1.8725 -2 2 C-1.34 1.34 -0.68 0.68 0 0 Z " fill="#FEA3A3" transform="translate(815,829)"/>
<path d="M0 0 C1.65 0 3.3 0 5 0 C5.13277344 0.92683594 5.26554688 1.85367188 5.40234375 2.80859375 C5.57894531 4.00613281 5.75554688 5.20367188 5.9375 6.4375 C6.11152344 7.63246094 6.28554688 8.82742188 6.46484375 10.05859375 C6.68985213 12.87955676 6.68985213 12.87955676 8 14 C8.23192865 15.51469448 8.41215238 17.03754562 8.5625 18.5625 C8.64628906 19.38878906 8.73007812 20.21507812 8.81640625 21.06640625 C8.87699219 21.70449219 8.93757812 22.34257813 9 23 C9.99 23.33 10.98 23.66 12 24 C11.34 24 10.68 24 10 24 C9.67 25.32 9.34 26.64 9 28 C8.5978125 26.90751953 8.5978125 26.90751953 8.1875 25.79296875 C7.01993223 23.04688008 5.67345845 20.77666757 4 18.3125 C3.484375 17.54550781 2.96875 16.77851562 2.4375 15.98828125 C1.01295322 13.90712863 1.01295322 13.90712863 -1 12 C-0.9765625 9.1796875 -0.9765625 9.1796875 -0.625 5.875 C-0.51414062 4.77929688 -0.40328125 3.68359375 -0.2890625 2.5546875 C-0.14597656 1.29011719 -0.14597656 1.29011719 0 0 Z " fill="#FE4B4B" transform="translate(740,888)"/>
<path d="M0 0 C2.59504802 -0.45794965 4.35523755 -0.3669257 6.66796875 0.94921875 C9.58344379 3.36608523 10.87024892 5.02486046 11.37890625 8.84765625 C11.37536773 11.59000789 11.26221852 14.27098508 11 17 C7.20505691 15.2160524 4.6863219 13.28328232 2 10 C1.6875 6.6875 1.6875 6.6875 2 4 C1.34 4 0.68 4 0 4 C0 2.68 0 1.36 0 0 Z " fill="#FF4A4A" transform="translate(833,890)"/>
<path d="M0 0 C0.66 0 1.32 0 2 0 C2.33 5.61 2.66 11.22 3 17 C-1 15 -1 15 -2 12 C-2.928125 11.87625 -3.85625 11.7525 -4.8125 11.625 C-8 11 -8 11 -11 9 C-11.1875 5.375 -11.1875 5.375 -11 2 C-10.34 2 -9.68 2 -9 2 C-8.01 3.485 -8.01 3.485 -7 5 C-4.41619823 5.25030977 -4.41619823 5.25030977 -2 5 C-1.34 3.35 -0.68 1.7 0 0 Z " fill="#FF3D3D" transform="translate(742,786)"/>
<path d="M0 0 C3.81311305 1.4980087 5.72483551 3.62648024 8 7 C9.03548655 10.03249633 9.27144529 11.33043496 8.0625 14.3125 C7.711875 14.869375 7.36125 15.42625 7 16 C3.19933226 14.7783568 1.54668958 12.40383946 -0.31640625 8.953125 C-1.41612004 5.81108559 -0.77357481 3.1587638 0 0 Z " fill="#FF3E3E" transform="translate(771,888)"/>
<path d="M0 0 C1.65 0.33 3.3 0.66 5 1 C5.36723164 5.52919021 5.36723164 5.52919021 3.78125 7.5625 C1.69204153 9.24852789 -0.12601734 9.90791832 -2.6875 10.6875 C-3.49574219 10.93886719 -4.30398438 11.19023438 -5.13671875 11.44921875 C-5.75160156 11.63097656 -6.36648438 11.81273437 -7 12 C-5.63855967 6.80177328 -3.53269829 3.90456127 0 0 Z " fill="#FF3434" transform="translate(808,763)"/>
<path d="M0 0 C0.99 0 1.98 0 3 0 C2.41196203 3.02419525 1.77321882 6.01758453 1 9 C-6.75 9.125 -6.75 9.125 -9 8 C-9 7.34 -9 6.68 -9 6 C-8.01 6 -7.02 6 -6 6 C-6 4.68 -6 3.36 -6 2 C-6.66 1.67 -7.32 1.34 -8 1 C-6.865625 1.020625 -5.73125 1.04125 -4.5625 1.0625 C-1.18424326 1.41577477 -1.18424326 1.41577477 0 0 Z " fill="#FFCCCC" transform="translate(687,822)"/>
<path d="M0 0 C5.16192076 3.14480095 9.16943929 6.9303009 13.375 11.25 C14.33599609 12.22453125 14.33599609 12.22453125 15.31640625 13.21875 C16.88229364 14.80800885 18.44328509 16.40176417 20 18 C19.01 18.33 18.02 18.66 17 19 C16.44570313 18.36191406 15.89140625 17.72382812 15.3203125 17.06640625 C14.59585938 16.24011719 13.87140625 15.41382813 13.125 14.5625 C12.04605469 13.32693359 12.04605469 13.32693359 10.9453125 12.06640625 C9.16761255 9.94017845 9.16761255 9.94017845 7 9 C6.67 10.98 6.34 12.96 6 15 C5.67 15 5.34 15 5 15 C4.896875 13.741875 4.79375 12.48375 4.6875 11.1875 C4.35672815 8.55064273 4.18061612 7.25450453 2.625 5.0625 C0.86586082 3.81390177 0.86586082 3.81390177 -2 3 C-1 1 -1 1 0 0 Z " fill="#FF9090" transform="translate(807,805)"/>
<path d="M0 0 C2.31 0 4.62 0 7 0 C7 1.65 7 3.3 7 5 C5.96875 5.391875 4.9375 5.78375 3.875 6.1875 C1.08677995 7.3638687 -1.02970089 8.70343756 -3.3125 10.6875 C-6 13 -6 13 -8 13 C-8 12.34 -8 11.68 -8 11 C-7.236875 10.2575 -6.47375 9.515 -5.6875 8.75 C-2.97366049 5.97304795 -1.55797703 3.52594801 0 0 Z " fill="#FF5454" transform="translate(704,805)"/>
<path d="M0 0 C0.99 0 1.98 0 3 0 C3.474375 0.969375 3.94875 1.93875 4.4375 2.9375 C5.70193947 5.80477437 5.70193947 5.80477437 7 7 C7.04092937 9.33297433 7.04241723 11.66705225 7 14 C9.97 14 12.94 14 16 14 C16 14.33 16 14.66 16 15 C14.56589632 15.24954005 13.12739928 15.47392642 11.6875 15.6875 C10.88699219 15.81511719 10.08648438 15.94273437 9.26171875 16.07421875 C7 16 7 16 5.34375 14.76171875 C2.00556556 10.38520369 -0.70512137 5.64097098 0 0 Z " fill="#FE4F4F" transform="translate(791,905)"/>
<path d="M0 0 C2.4375 0.6875 2.4375 0.6875 5 2 C5.93656229 4.80968687 6 7.03799136 6 10 C3.6875 10.3125 3.6875 10.3125 1 10 C-0.81883009 7.6167054 -2 6.04181663 -2 3 C-1.34 3 -0.68 3 0 3 C0 2.01 0 1.02 0 0 Z " fill="#FF9A9A" transform="translate(809,838)"/>
<path d="M0 0 C1.98 0.99 3.96 1.98 6 3 C6 3.99 6 4.98 6 6 C5.030625 6.28875 4.06125 6.5775 3.0625 6.875 C-0.10664203 7.64214682 -0.10664203 7.64214682 -1 10 C-1 9.01 -1 8.02 -1 7 C-2.32 6.67 -3.64 6.34 -5 6 C-3.86695008 2.60085025 -2.87481525 1.94745549 0 0 Z " fill="#FEDDDD" transform="translate(771,759)"/>
<path d="M0 0 C0 0.66 0 1.32 0 2 C-1.175625 2.433125 -2.35125 2.86625 -3.5625 3.3125 C-7.43033974 4.76035445 -11.21667009 6.34479317 -15 8 C-15 6.02 -15 4.04 -15 2 C-12.87528825 1.6648342 -10.75022095 1.33192171 -8.625 1 C-7.44164062 0.814375 -6.25828125 0.62875 -5.0390625 0.4375 C-2 0 -2 0 0 0 Z " fill="#FF9090" transform="translate(804,807)"/>
<path d="M0 0 C2.02045442 0.60183749 4.02111039 1.27306096 6 2 C6.33 2.66 6.66 3.32 7 4 C6.34 4 5.68 4 5 4 C4.67 5.32 4.34 6.64 4 8 C2.68 8 1.36 8 0 8 C-0.38063221 5.6739143 -0.71269945 3.33944736 -1 1 C-0.67 0.67 -0.34 0.34 0 0 Z " fill="#FF5B5B" transform="translate(815,829)"/>
<path d="M0 0 C0.66 0 1.32 0 2 0 C2.33 5.61 2.66 11.22 3 17 C1.68 16.34 0.36 15.68 -1 15 C-1.02703381 13.06257659 -1.04641125 11.12504521 -1.0625 9.1875 C-1.07410156 8.10855469 -1.08570313 7.02960937 -1.09765625 5.91796875 C-1 3 -1 3 0 0 Z " fill="#FF7979" transform="translate(742,786)"/>
<path d="M0 0 C0 0.66 0 1.32 0 2 C-0.66 2.66 -1.32 3.32 -2 4 C-2.33 4.99 -2.66 5.98 -3 7 C-4.65 7.33 -6.3 7.66 -8 8 C-8.33 6.35 -8.66 4.7 -9 3 C-2.25 0 -2.25 0 0 0 Z " fill="#FF9C9C" transform="translate(888,834)"/>
<path d="M0 0 C0.33 1.65 0.66 3.3 1 5 C0.01 5.66 -0.98 6.32 -2 7 C-2.33 7.99 -2.66 8.98 -3 10 C-3.99 10 -4.98 10 -6 10 C-5.38909774 3.52443609 -5.38909774 3.52443609 -3.5625 1.0625 C-2 0 -2 0 0 0 Z " fill="#FFB2B2" transform="translate(713,789)"/>
<path d="M0 0 C0.66 0 1.32 0 2 0 C6 6.75 6 6.75 6 9 C4.35 9.33 2.7 9.66 1 10 C-0.60725635 6.78548731 -0.05748185 3.56387464 0 0 Z " fill="#FF5E5E" transform="translate(847,895)"/>
<path d="M0 0 C4.07376031 1.61010527 6.76507069 4.53822271 9.75 7.625 C10.25660156 8.140625 10.76320313 8.65625 11.28515625 9.1875 C12.52803902 10.45383339 13.76465276 11.7263144 15 13 C14.01 13.33 13.02 13.66 12 14 C9.99699451 11.85690336 7.99750256 9.71071503 6 7.5625 C5.42765625 6.95083984 4.8553125 6.33917969 4.265625 5.70898438 C0 1.11328125 0 1.11328125 0 0 Z " fill="#FF9090" transform="translate(812,810)"/>
<path d="M0 0 C0.33 0 0.66 0 1 0 C0.56638344 4.59633558 0.29574577 6.84157697 -3 10 C-3.7269226 13.10839021 -3.7269226 13.10839021 -4 16 C-5.32 15.67 -6.64 15.34 -8 15 C-6.36571232 10.8753692 -5.20814519 8.06866062 -2 5 C-0.80972016 2.40084462 -0.80972016 2.40084462 0 0 Z " fill="#FF9090" transform="translate(795,779)"/>
<path d="M0 0 C0.66 0.66 1.32 1.32 2 2 C0.33333333 5.33333333 -1.33333333 8.66666667 -3 12 C-3.33 11.34 -3.66 10.68 -4 10 C-4.99 9.67 -5.98 9.34 -7 9 C-6.01 8.34 -5.02 7.68 -4 7 C-3.29788106 5.34795544 -2.63028587 3.68076231 -2 2 C-1.34 1.34 -0.68 0.68 0 0 Z " fill="#FF6565" transform="translate(686,777)"/>
<path d="M0 0 C0.99 0 1.98 0 3 0 C3.66 2.31 4.32 4.62 5 7 C3.35 7 1.7 7 0 7 C0 4.69 0 2.38 0 0 Z " fill="#FF6060" transform="translate(787,892)"/>
<path d="M0 0 C0.33 0.66 0.66 1.32 1 2 C0.01 2.33 -0.98 2.66 -2 3 C1.96 3.33 5.92 3.66 10 4 C10 4.33 10 4.66 10 5 C4.72 5 -0.56 5 -6 5 C-5.67 4.01 -5.34 3.02 -5 2 C-2.4375 0.8125 -2.4375 0.8125 0 0 Z " fill="#FFD1D1" transform="translate(652,765)"/>
<path d="M0 0 C2.39489543 0.74324341 3.70777616 1.47057354 4.93359375 3.69140625 C5.67219923 5.44073501 6.34049685 7.21934149 7 9 C4.13998967 7.71792641 1.92960588 6.50848764 0 4 C0 2.68 0 1.36 0 0 Z " fill="#FF3D3D" transform="translate(808,830)"/>
<path d="M0 0 C0.66 0 1.32 0 2 0 C2 2.97 2 5.94 2 9 C0.68 7.68 -0.64 6.36 -2 5 C-1.34 3.35 -0.68 1.7 0 0 Z " fill="#FF5F5F" transform="translate(726,893)"/>
<path d="M0 0 C2.475 0.99 2.475 0.99 5 2 C5 2.99 5 3.98 5 5 C2.69 4.67 0.38 4.34 -2 4 C-1.34 3.67 -0.68 3.34 0 3 C0 2.01 0 1.02 0 0 Z " fill="#FF7E7E" transform="translate(809,838)"/>
<path d="M0 0 C1.32 0 2.64 0 4 0 C4.33 1.65 4.66 3.3 5 5 C3.02 5.33 1.04 5.66 -1 6 C-1 5.01 -1 4.02 -1 3 C-0.34 3 0.32 3 1 3 C0.67 2.01 0.34 1.02 0 0 Z " fill="#FFDADA" transform="translate(887,833)"/>
<path d="M0 0 C4.455 0.99 4.455 0.99 9 2 C9 2.99 9 3.98 9 5 C5.85262818 4.30058404 2.97411124 3.23921302 0 2 C0 1.34 0 0.68 0 0 Z " fill="#FF5E5E" transform="translate(735,807)"/>
<path d="M0 0 C2.475 0.495 2.475 0.495 5 1 C5 1.99 5 2.98 5 4 C3.35 4.66 1.7 5.32 0 6 C0 4.02 0 2.04 0 0 Z " fill="#FF4747" transform="translate(789,809)"/>
<path d="M0 0 C0.99 0.495 0.99 0.495 2 1 C2 2.32 2 3.64 2 5 C3.98 5 5.96 5 8 5 C8 5.33 8 5.66 8 6 C5.69 6.66 3.38 7.32 1 8 C0 7 0 7 -0.0625 3.4375 C-0.041875 2.303125 -0.02125 1.16875 0 0 Z " fill="#FF6767" transform="translate(879,894)"/>
<path d="M0 0 C0.99 0.33 1.98 0.66 3 1 C2.34 1 1.68 1 1 1 C1.34444881 3.47266765 1.34444881 3.47266765 2 6 C2.66 6.33 3.32 6.66 4 7 C3.01 8.485 3.01 8.485 2 10 C1.01 10 0.02 10 -1 10 C-0.67 6.7 -0.34 3.4 0 0 Z " fill="#FEC9C9" transform="translate(788,808)"/>
<path d="M0 0 C0.99 0 1.98 0 3 0 C3.33 2.64 3.66 5.28 4 8 C2.35 7.67 0.7 7.34 -1 7 C-1 6.34 -1 5.68 -1 5 C-0.01 5 0.98 5 2 5 C2 3.68 2 2.36 2 1 C1.34 0.67 0.68 0.34 0 0 Z " fill="#FF9A9A" transform="translate(679,823)"/>
<path d="M0 0 C0.103125 0.639375 0.20625 1.27875 0.3125 1.9375 C0.539375 2.618125 0.76625 3.29875 1 4 C1.99 4.33 2.98 4.66 4 5 C4 5.66 4 6.32 4 7 C2.35 7 0.7 7 -1 7 C-0.67 4.69 -0.34 2.38 0 0 Z " fill="#FE5252" transform="translate(754,803)"/>
<path d="M0 0 C0.66 0.66 1.32 1.32 2 2 C1.66898318 5.80669345 0.76838944 8.65165606 -1 12 C-1.02712066 10.56260487 -1.04645067 9.12506137 -1.0625 7.6875 C-1.07410156 6.88699219 -1.08570313 6.08648438 -1.09765625 5.26171875 C-1 3 -1 3 0 0 Z " fill="#FEC3C3" transform="translate(753,797)"/>
<path d="M0 0 C1.32 0 2.64 0 4 0 C3.5359375 0.7734375 3.5359375 0.7734375 3.0625 1.5625 C1.70940713 4.66665423 1.38640576 7.65115007 1 11 C0.67 11 0.34 11 0 11 C0 7.37 0 3.74 0 0 Z " fill="#FEBEBE" transform="translate(730,784)"/>
<path d="M0 0 C0.66 0 1.32 0 2 0 C2 2.64 2 5.28 2 8 C0.4375 6.8125 0.4375 6.8125 -1 5 C-0.6875 2.3125 -0.6875 2.3125 0 0 Z " fill="#FE6B6B" transform="translate(687,889)"/>
<path d="M0 0 C0.99 0.33 1.98 0.66 3 1 C2.67 3.31 2.34 5.62 2 8 C1.34 8 0.68 8 0 8 C0 5.36 0 2.72 0 0 Z " fill="#FF7373" transform="translate(691,887)"/>
<path d="M0 0 C1.32 1.32 2.64 2.64 4 4 C3.34 5.98 2.68 7.96 2 10 C1.67 10 1.34 10 1 10 C0.67 6.7 0.34 3.4 0 0 Z " fill="#FF6E6E" transform="translate(811,810)"/>
</svg>
